<?xml version="1.0" standalone="no"?>
<!DOCTYPE svg PUBLIC "-//W3C//DTD SVG 1.1//EN" "http://www.w3.org/Graphics/SVG/1.1/DTD/svg11.dtd" >
<!--
2013-9-30: Created.
-->
<svg>
<metadata>
Created by iconfont
</metadata>
<defs>

<font id="opIcon" horiz-adv-x="1024" >
  <font-face
    font-family="opIcon"
    font-weight="500"
    font-stretch="normal"
    units-per-em="1024"
    ascent="896"
    descent="-128"
  />
    <missing-glyph />
    
    <glyph glyph-name="addfollow" unicode="&#59626;" d="M512 710.506667C567.786667 757.8240000000001 608.213333 778.666667 667.786667 778.666667c126.229333 0 212.714667-76.736 248.341333-202.848a32 32 0 0 0-61.589333-17.386667C826.208 658.688 763.125333 714.666667 667.786667 714.666667c-41.514667 0-70.357333-15.253333-117.077334-55.253334-2.165333-1.856-14.4-12.416-17.952-15.434666a32 32 0 0 0-41.514666 0c-3.552 3.018667-15.786667 13.578667-17.952 15.434666-46.72 40-75.562667 55.253333-117.077334 55.253334C230.112 714.666667 149.333333 613.6320000000001 149.333333 467.904c0-110.965333 113.269333-248.885333 343.573334-408.8a32.522667 32.522667 0 0 1 37.205333 0.16c47.445333 33.536 78.997333 56.426667 94.282667 68.373333a32 32 0 1 0 39.413333-50.432c-16.362667-12.778667-48.48-36.085333-96.746667-70.208a96.522667 96.522667 0 0 0-110.666666-0.458666C210.272 177.44000000000005 85.333333 329.568 85.333333 467.904 85.333333 646.229333 191.221333 778.666667 356.213333 778.666667 415.786667 778.666667 456.213333 757.8240000000001 512 710.506667zM821.333333 341.33333300000004h85.333334a32 32 0 0 0 0-64h-85.333334v-85.333333a32 32 0 0 0-64 0v85.333333h-85.333333a32 32 0 0 0 0 64h85.333333v85.333334a32 32 0 0 0 64 0v-85.333334z"  horiz-adv-x="1024" />

    
    <glyph glyph-name="camera-o" unicode="&#59627;" d="M269.44 640l23.296 75.381333A74.666667 74.666667 0 0 0 364.074667 768h295.850666a74.666667 74.666667 0 0 0 71.338667-52.618667L754.56 640H821.333333c64.8 0 117.333333-52.533333 117.333334-117.333333v-426.666667c0-64.8-52.533333-117.333333-117.333334-117.333333H202.666667c-64.8 0-117.333333 52.533333-117.333334 117.333333V522.666667c0 64.8 52.533333 117.333333 117.333334 117.333333h66.773333z m23.605333-64H202.666667a53.333333 53.333333 0 0 1-53.333334-53.333333v-426.666667a53.333333 53.333333 0 0 1 53.333334-53.333333h618.666666a53.333333 53.333333 0 0 1 53.333334 53.333333V522.666667a53.333333 53.333333 0 0 1-53.333334 53.333333h-90.378666a32 32 0 0 0-30.570667 22.549333l-30.272 97.930667a10.666667 10.666667 0 0 1-10.186667 7.52H364.074667a10.666667 10.666667 0 0 1-10.186667-7.52l-30.272-97.92A32 32 0 0 0 293.045333 576zM512 170.66666699999996c-88.362667 0-160 71.637333-160 160 0 88.362667 71.637333 160 160 160 88.362667 0 160-71.637333 160-160 0-88.362667-71.637333-160-160-160z m0 64a96 96 0 1 1 0 192 96 96 0 0 1 0-192z"  horiz-adv-x="1024" />

    
    <glyph glyph-name="news" unicode="&#59628;" d="M821.333333 96H547.584l-86.464-96.074667a32 32 0 1 0-47.573333 42.816l96 106.666667A32 32 0 0 0 533.333333 160h288a53.333333 53.333333 0 0 1 53.333334 53.333333V661.333333a53.333333 53.333333 0 0 1-53.333334 53.333334H202.666667a53.333333 53.333333 0 0 1-53.333334-53.333334v-448a53.333333 53.333333 0 0 1 53.333334-53.333333h138.666666a32 32 0 0 0 0-64H202.666667c-64.8 0-117.333333 52.533333-117.333334 117.333333V661.333333c0 64.8 52.533333 117.333333 117.333334 117.333334h618.666666c64.8 0 117.333333-52.533333 117.333334-117.333334v-448c0-64.8-52.533333-117.333333-117.333334-117.333333zM704 554.666667a32 32 0 0 0 0-64H320a32 32 0 0 0 0 64h384zM512 384a32 32 0 0 0 0-64H320a32 32 0 0 0 0 64h192z"  horiz-adv-x="1024" />

    
    <glyph glyph-name="upload" unicode="&#59629;" d="M507.136 381.05600000000004c3.072 4.362667 7.210667 7.925333 12.032 10.314667a37.365333 37.365333 0 0 0 46.634667-6.144l97.418666-102.794667a32 32 0 0 0-46.442666-44.021333L565.333333 292.68266700000004V42.66666699999996a32 32 0 1 0-64 0V287.242667l-52.618666-50.016a32 32 0 0 0-44.096 46.4l102.517333 97.429333zM512 757.333333c123.018667 0 228.213333-85.696 259.424-204.469333C864.298667 551.264 938.666667 473.248 938.666667 377.781333 938.666667 281.312 862.752 202.66666699999996 768.533333 202.66666699999996a32 32 0 0 0 0 64C826.890667 266.66666699999996 874.666667 316.15999999999997 874.666667 377.781333c0 61.610667-47.776 111.104-106.133334 111.104-5.856 0-11.626667-0.490667-17.301333-1.461333a32 32 0 0 0-37.024 26.666667C698.346667 616.96 612.714667 693.333333 512 693.333333c-73.834667 0-140.928-41.066667-177.376-106.613333a32 32 0 0 0-30.122667-16.373333c-3.168 0.213333-6.357333 0.32-9.568 0.32C214.784 570.666667 149.333333 502.858667 149.333333 418.666667S214.784 266.66666699999996 294.933333 266.66666699999996a32 32 0 1 0 0-64C178.912 202.66666699999996 85.333333 299.626667 85.333333 418.666667c0 116.938667 90.293333 212.554667 203.456 215.904C338.090667 710.304 421.013333 757.333333 512 757.333333z"  horiz-adv-x="1024" />

    
    <glyph glyph-name="notice" unicode="&#59630;" d="M192.032 264.59733300000005V491.274667C192.032 667.669333 335.285333 810.666667 512 810.666667s319.968-142.997333 319.968-319.392v-226.677334l60.608-121.013333c10.645333-21.237333-4.832-46.218667-28.618667-46.218667H160.042667c-23.786667 0-39.253333 24.981333-28.618667 46.218667l60.608 121.013333z m620.16-103.36l-40.842667 81.536a31.893333 31.893333 0 0 0-3.381333 14.282667V491.274667c0 141.12-114.602667 255.509333-255.968 255.509333S256.032 632.394667 256.032 491.274667V257.06666700000005c0-4.96-1.162667-9.845333-3.381333-14.293334l-40.842667-81.525333h600.384z m-443.306667-152.32a31.893333 31.893333 0 0 0-4.149333 44.981334 32.032 32.032 0 0 0 45.056 4.138666A159.36 159.36 0 0 1 512 21.22666700000002a159.36 159.36 0 0 1 102.186667 36.8 32.032 32.032 0 0 0 45.056-4.138667 31.893333 31.893333 0 0 0-4.16-44.981333A223.402667 223.402667 0 0 0 512-42.66666699999996c-52.981333 0-103.2 18.453333-143.114667 51.594667z"  horiz-adv-x="1024" />

    
    <glyph glyph-name="card-o" unicode="&#59631;" d="M874.666667 501.333333H149.333333v-373.333333a53.333333 53.333333 0 0 1 53.333334-53.333333h618.666666a53.333333 53.333333 0 0 1 53.333334 53.333333V501.333333z m-725.333334 64h725.333334v74.666667a53.333333 53.333333 0 0 1-53.333334 53.333333H202.666667a53.333333 53.333333 0 0 1-53.333334-53.333333v-74.666667z m608-341.333333a32 32 0 0 0 0-64H650.666667a32 32 0 0 0 0 64h106.666666zM202.666667 757.333333h618.666666c64.8 0 117.333333-52.533333 117.333334-117.333333v-512c0-64.8-52.533333-117.333333-117.333334-117.333333H202.666667c-64.8 0-117.333333 52.533333-117.333334 117.333333V640c0 64.8 52.533333 117.333333 117.333334 117.333333z"  horiz-adv-x="1024" />

    
    <glyph glyph-name="eye-o" unicode="&#59632;" d="M512 64c-156.448 0-296.021333 98.730667-418.410667 291.605333a52.938667 52.938667 0 0 0 0 56.789334C215.978667 605.269333 355.552 704 512 704c156.448 0 296.021333-98.730667 418.410667-291.605333a52.938667 52.938667 0 0 0 0-56.789334C808.021333 162.73066700000004 668.448 64 512 64z m0 576c-129.514667 0-249.461333-83.850667-360.117333-256C262.538667 211.85066700000004 382.485333 128 512 128c129.514667 0 249.461333 83.850667 360.117333 256C761.461333 556.1493330000001 641.514667 640 512 640z m0-405.333333c-83.210667 0-150.666667 66.858667-150.666667 149.333333S428.789333 533.333333 512 533.333333s150.666667-66.858667 150.666667-149.333333S595.210667 234.66666699999996 512 234.66666699999996z m0 64c47.552 0 86.101333 38.208 86.101333 85.333333S559.552 469.333333 512 469.333333c-47.552 0-86.101333-38.208-86.101333-85.333333s38.549333-85.333333 86.101333-85.333333z"  horiz-adv-x="1024" />

    
    <glyph glyph-name="followed" unicode="&#59633;" d="M356.266667 778.666667c59.584 0 100.021333-20.842667 155.818666-68.16C567.872 757.8240000000001 608.32 778.666667 667.904 778.666667c126.261333 0 212.746667-76.736 248.384-202.848a32 32 0 1 0-61.6-17.386667C826.357333 658.688 763.274667 714.666667 667.914667 714.666667c-41.536 0-70.389333-15.253333-117.12-55.253334-2.165333-1.856-14.4-12.416-17.941334-15.434666a32.010667 32.010667 0 0 0-41.536 0c-3.541333 3.018667-15.786667 13.578667-17.952 15.434666C426.645333 699.413333 397.792 714.666667 356.266667 714.666667 230.133333 714.666667 149.333333 613.6320000000001 149.333333 467.904c0-110.965333 113.290667-248.885333 343.637334-408.8a32.533333 32.533333 0 0 1 37.216 0.16c47.456 33.536 79.018667 56.426667 94.293333 68.373333a32.010667 32.010667 0 0 0 39.424-50.432c-16.352-12.778667-48.48-36.085333-96.768-70.208a96.554667 96.554667 0 0 0-110.677333-0.458666C210.293333 177.44000000000005 85.333333 329.568 85.333333 467.904 85.333333 646.229333 191.242667 778.666667 356.266667 778.666667z m388-555.392a31.925333 31.925333 0 0 0-22.773334 8.704l-93.184 87.84a29.824 29.824 0 0 0 0 43.413333l1.077334 1.013333a32 32 0 0 0 43.904 0l70.976-66.912 140.053333 132.021334a32 32 0 0 0 43.904 0l1.066667-1.013334a29.824 29.824 0 0 0 0-43.413333L767.04 231.96799999999996a31.925333 31.925333 0 0 0-22.762667-8.693333z"  horiz-adv-x="1024" />

    
    <glyph glyph-name="plus-circle-o" unicode="&#59634;" d="M512-42.66666699999996C276.362667-42.66666699999996 85.333333 148.362667 85.333333 384S276.362667 810.666667 512 810.666667s426.666667-191.029333 426.666667-426.666667-191.029333-426.666667-426.666667-426.666667z m0 64c200.298667 0 362.666667 162.368 362.666667 362.666667S712.298667 746.666667 512 746.666667 149.333333 584.298667 149.333333 384s162.368-362.666667 362.666667-362.666667z m32 394.666667h128a32 32 0 0 0 0-64H544v-128a32 32 0 0 0-64 0V352H352a32 32 0 0 0 0 64h128V544a32 32 0 0 0 64 0v-128z"  horiz-adv-x="1024" />

    
    <glyph glyph-name="voice" unicode="&#59635;" d="M544 44.05333299999995V-10.666666999999961a32 32 0 0 0-64 0v54.72C294.688 60.266666999999984 149.333333 215.82933300000002 149.333333 405.333333v21.333334a32 32 0 0 0 64 0v-21.333334c0-164.949333 133.717333-298.666667 298.666667-298.666666s298.666667 133.717333 298.666667 298.666666v21.333334a32 32 0 0 0 64 0v-21.333334c0-189.514667-145.354667-345.066667-330.666667-361.28zM298.666667 597.44C298.666667 715.2 394.165333 810.666667 512 810.666667c117.781333 0 213.333333-95.541333 213.333333-213.226667v-192.213333C725.333333 287.46666700000003 629.834667 192 512 192c-117.781333 0-213.333333 95.541333-213.333333 213.226667V597.44z m64 0v-192.213333C362.666667 322.88 429.557333 256 512 256c82.496 0 149.333333 66.805333 149.333333 149.226667V597.44C661.333333 679.786667 594.442667 746.666667 512 746.666667c-82.496 0-149.333333-66.805333-149.333333-149.226667z"  horiz-adv-x="1024" />

    
    <glyph glyph-name="coupon-o" unicode="&#59636;" d="M821.333333 757.333333c64.8 0 117.333333-52.533333 117.333334-117.333333v-149.333333a32 32 0 0 0-32-32 74.666667 74.666667 0 0 1 0-149.333334 32 32 0 0 0 32-32v-149.333333c0-64.8-52.533333-117.333333-117.333334-117.333333H202.666667c-64.8 0-117.333333 52.533333-117.333334 117.333333V277.33333300000004a32 32 0 0 0 32 32 74.666667 74.666667 0 0 1 0 149.333334 32 32 0 0 0-32 32V640c0 64.8 52.533333 117.333333 117.333334 117.333333h618.666666z m0-64H202.666667a53.333333 53.333333 0 0 1-53.333334-53.333333v-121.045333C210.485333 504.512 256 449.568 256 384c0-65.568-45.514667-120.512-106.666667-134.954667V128a53.333333 53.333333 0 0 1 53.333334-53.333333h618.666666a53.333333 53.333333 0 0 1 53.333334 53.333333V249.04533300000003C813.514667 263.48800000000006 768 318.432 768 384c0 65.568 45.514667 120.512 106.666667 134.954667V640a53.333333 53.333333 0 0 1-53.333334 53.333333zM384.853333 568.586667a32 32 0 0 0 45.066667-4.096L512 465.984l82.08 98.506667a32 32 0 1 0 49.173333-40.981334L571.413333 437.333333H618.666667a32 32 0 0 0 31.946666-30.122666L650.666667 405.333333a32 32 0 0 0-32-32h-69.333334v-42.666666H618.666667a32 32 0 0 0 31.946666-30.122667L650.666667 298.66666699999996a32 32 0 0 0-32-32h-69.333334v-42.666667a32 32 0 0 0-30.122666-31.946667L517.333333 192a32 32 0 0 0-32 32v42.666667H405.333333a32 32 0 0 0-31.946666 30.122666L373.333333 298.66666699999996a32 32 0 0 0 32 32h80v42.666666H405.333333a32 32 0 0 0-31.946666 30.122667L373.333333 405.333333a32 32 0 0 0 32 32h47.232l-71.818666 86.186667a32 32 0 0 0 2.581333 43.722667z"  horiz-adv-x="1024" />

    
    <glyph glyph-name="wifi" unicode="&#59637;" d="M926.634667 601.088a32 32 0 1 0-39.936-50.005333C780.512 635.8720000000001 649.824 682.666667 512.053333 682.666667c-137.813333 0-268.544-46.826667-374.752-131.669334a32 32 0 1 0-39.936 50.005334C214.784 694.805333 359.562667 746.666667 512.053333 746.666667c152.437333 0 297.173333-51.818667 414.581334-145.578667z m-235.413334-298.133333a32 32 0 0 0-38.442666-51.178667A233.418667 233.418667 0 0 1 512.021333 298.66666699999996c-51.541333 0-100.48-16.629333-140.8-46.912a32 32 0 1 0-38.442666 51.157333A297.408 297.408 0 0 0 512.021333 362.66666699999996c65.504 0 127.893333-21.184 179.2-59.722667z m128 149.344a32 32 0 0 0-38.442666-51.168C703.829333 458.933333 610.378667 490.666667 512.032 490.666667c-98.368 0-191.850667-31.754667-268.8-89.578667a32 32 0 1 0-38.453333 51.157333C292.736 518.336 399.669333 554.666667 512.032 554.666667c112.32 0 219.242667-36.309333 307.189333-102.368zM512 42.66666699999996a64 64 0 1 0 0 128 64 64 0 0 0 0-128z"  horiz-adv-x="1024" />

    
    <glyph glyph-name="fingerprint" unicode="&#59638;" d="M749.290667 115.20000000000005a32 32 0 0 0-64.021334 0V249.60000000000002c0 98.965333-80.266667 179.2-179.274666 179.2-99.008 0-179.264-80.234667-179.264-179.2v-115.2a32 32 0 0 0-64.032 0V249.60000000000002c0 134.314667 108.928 243.2 243.306666 243.2 134.357333 0 243.285333-108.885333 243.285334-243.2v-134.4z m149.930666 500.906667a32 32 0 0 0-4.042666-45.077334 32.021333 32.021333 0 0 0-45.088 4.032C765.418667 676.373333 640.608 736 505.994667 736 377.386667 736 257.6 681.6 173.12 587.9680000000001a32.021333 32.021333 0 0 0-45.226667-2.325333 32 32 0 0 0-2.314666 45.194666C222.08 737.770667 359.072 800 505.994667 800c153.792 0 296.512-68.202667 393.226666-183.893333zM883.733333 268.79999999999995a32 32 0 0 0-64.032 0c0 130.218667-80.128 245.461333-199.402666 292.138667a32 32 0 1 0 23.338666 59.594666C787.264 564.3413330000001 883.733333 425.578667 883.733333 268.79999999999995zM505.994667 646.4a32 32 0 1 0 0-64c-173.258667 0-313.717333-140.405333-313.717334-313.6a32 32 0 0 0-64.021333 0c0 208.533333 169.12 377.6 377.738667 377.6z m0-371.2a25.6 25.6 0 0 1-25.6-25.066667l0.192-5.152a1953.109333 1953.109333 0 0 0 1.205333-61.845333c0.010667-19.882667-0.448-36.48-1.525333-49.066667-3.573333-41.877333-15.082667-78.410667-32.106667-109.493333a222.293333 222.293333 0 0 0-23.584-35.061333c-5.173333-6.229333-9.472-10.666667-12.437333-13.333334a32.021333 32.021333 0 0 0-45.205334 2.442667 32 32 0 0 0 2.432 45.184c-0.074667-0.064 0.256 0.245333 0.938667 0.96 1.429333 1.461333 3.093333 3.328 4.96 5.568a158.602667 158.602667 0 0 1 16.746667 24.970667c12.864 23.488 21.674667 51.477333 24.469333 84.202666 0.885333 10.378667 1.301333 25.386667 1.290667 43.594667a1643.466667 1643.466667 0 0 1-1.173334 59.573333l-0.213333 5.578667-0.021333 1.344c0 49.493333 40.128 89.6 89.632 89.6a89.621333 89.621333 0 0 0 89.632-89.6v-171.050667a32 32 0 0 0-64.021334 0V249.60000000000002a25.6 25.6 0 0 1-25.6 25.6z"  horiz-adv-x="1024" />

    
    <glyph glyph-name="like" unicode="&#59639;" d="M621.674667 487.978667c16.618667 74.24 28.224 127.936 34.837333 161.194666C673.152 732.906667 629.941333 810.666667 544.298667 810.666667c-77.226667 0-116.010667-38.378667-138.88-115.093334l-0.586667-2.24c-13.728-62.058667-34.72-110.165333-62.506667-144.586666a158.261333 158.261333 0 0 0-119.733333-58.965334l-21.909333-0.469333C148.437333 488.192 106.666667 445.184 106.666667 392.501333V74.66666699999996c0-64.8 52.106667-117.333333 116.394666-117.333334h412.522667c84.736 0 160.373333 53.568 189.12 133.92l85.696 239.584c21.802667 60.96-9.536 128.202667-70.005333 150.186667a115.552 115.552 0 0 1-39.488 6.954667H621.674667z"  horiz-adv-x="1024" />

    
    <glyph glyph-name="phone" unicode="&#59640;" d="M742.218667 369.33333300000004c107.637333 0 194.848-87.573333 194.848-195.552V170.66666699999996c0-103.168-93.578667-190.4-190.4-190.4h-45.44a30.4 30.4 0 0 0-2.517334 0.106666c-153.898667 12.778667-312.266667 80.128-411.914666 173.888C169.184 264.917333 86.933333 434.56 86.933333 592.181333c0 113.802667 84.405333 195.552 194.848 195.552 107.626667 0 194.837333-87.573333 194.837334-195.552 0-76.032-44.181333-138.773333-111.701334-169.12a507.658667 507.658667 0 0 1 81.6-100.266666c36.288-34.453333 76.544-62.336 118.752-81.813334 26.304 76.170667 94.186667 128.352 176.96 128.352z"  horiz-adv-x="1024" />

    
    <glyph glyph-name="help" unicode="&#59641;" d="M512 810.666667c235.637333 0 426.666667-191.029333 426.666667-426.666667S747.637333-42.66666699999996 512-42.66666699999996 85.333333 148.362667 85.333333 384 276.362667 810.666667 512 810.666667z m0-586.666667a32 32 0 1 1 0-64 32 32 0 0 1 0 64z m-2.517333 373.333333c-48.416 0-92.746667-24.16-118.613334-63.413333a137.088 137.088 0 0 1-15.978666-33.237333 32 32 0 0 1 60.906666-19.690667c2.016 6.24 4.885333 12.202667 8.522667 17.717333C458.4 520.085333 482.709333 533.333333 509.482667 533.333333 552.277333 533.333333 586.666667 499.733333 586.666667 458.666667s-34.4-74.666667-77.194667-74.666667a32 32 0 0 1-32-32v-64a32 32 0 0 1 64 0v35.584C603.946667 337.80266700000004 650.666667 392.768 650.666667 458.666667c0 76.757333-63.381333 138.666667-141.194667 138.666666z"  horiz-adv-x="1024" />

    
    <glyph glyph-name="movieticket" unicode="&#59642;" d="M821.333333 757.333333c64.8 0 117.333333-52.533333 117.333334-117.333333v-149.333333a32 32 0 0 0-32-32 74.666667 74.666667 0 0 1 0-149.333334 32 32 0 0 0 32-32v-149.333333c0-64.8-52.533333-117.333333-117.333334-117.333333H202.666667c-64.8 0-117.333333 52.533333-117.333334 117.333333V277.33333300000004a32 32 0 0 0 32 32 74.666667 74.666667 0 0 1 0 149.333334 32 32 0 0 0-32 32V640c0 64.8 52.533333 117.333333 117.333334 117.333333h618.666666zM640 330.66666699999996H384a32 32 0 0 1 0-64h256a32 32 0 0 1 0 64z m0 170.666666H384a32 32 0 0 1 0-64h256a32 32 0 0 1 0 64z"  horiz-adv-x="1024" />

    
    <glyph glyph-name="find" unicode="&#59643;" d="M512 810.666667c235.637333 0 426.666667-191.029333 426.666667-426.666667S747.637333-42.66666699999996 512-42.66666699999996 85.333333 148.362667 85.333333 384 276.362667 810.666667 512 810.666667z m149.162667-222.901334L444.16 509.642667a96 96 0 0 1-57.802667-57.813334l-78.122666-216.992a42.666667 42.666667 0 0 1 54.602666-54.602666l217.002667 78.122666a96 96 0 0 1 57.802667 57.813334l78.122666 216.992a42.666667 42.666667 0 0 1-54.602666 54.602666zM512 330.66666699999996a53.333333 53.333333 0 1 1 0 106.666666 53.333333 53.333333 0 0 1 0-106.666666z"  horiz-adv-x="1024" />

    
    <glyph glyph-name="position" unicode="&#59644;" d="M512-42.66666699999996c-53.333333 0-384 257.258667-384 469.333334S299.925333 810.666667 512 810.666667s384-171.925333 384-384-330.666667-469.333333-384-469.333334z m0 352c64.8 0 117.333333 52.533333 117.333333 117.333334s-52.533333 117.333333-117.333333 117.333333-117.333333-52.533333-117.333333-117.333333 52.533333-117.333333 117.333333-117.333334z"  horiz-adv-x="1024" />

    
    <glyph glyph-name="volume" unicode="&#59645;" d="M694.368 778.72a67.957333 67.957333 0 0 0 10.336-36.021333v-717.408a67.957333 67.957333 0 0 0-103.978667-57.632L326.026667 139.349333H180.48A95.146667 95.146667 0 0 0 85.333333 234.49599999999998V533.493333a95.146667 95.146667 0 0 0 95.146667 95.146667h145.546667L600.725333 800.3199999999999a67.957333 67.957333 0 0 0 93.653334-21.610667z m120.330667-133.525333a32 32 0 0 0 44.533333-8.042667 443.114667 443.114667 0 0 0 0.117333-506.133333 32 32 0 0 0-52.586666 36.458666 379.114667 379.114667 0 0 1-0.106667 433.184 32 32 0 0 0 8.042667 44.533334z"  horiz-adv-x="1024" />

    
    <glyph glyph-name="topic" unicode="&#59646;" d="M476.021333 352h63.424l8.533334 64h-63.424l-8.533334-64zM512 810.666667c235.637333 0 426.666667-191.029333 426.666667-426.666667S747.637333-42.66666699999996 512-42.66666699999996a424.778667 424.778667 0 0 0-219.125333 60.501334 2786.56 2786.56 0 0 1-20.053334 11.765333l-104.405333-28.48c-23.893333-6.506667-45.802667 15.413333-39.285333 39.296l28.437333 104.288c-11.008 18.688-18.218667 31.221333-21.802667 37.909333A424.885333 424.885333 0 0 0 85.333333 384C85.333333 619.637333 276.362667 810.666667 512 810.666667z m89.557333-234.944a32 32 0 0 1-35.946666-27.498667L556.512 480h-63.424l7.968 59.776a32 32 0 0 1-63.445333 8.448L428.512 480H352a32 32 0 0 1 0-64h67.978667l-8.533334-64H352a32 32 0 0 1 0-64h50.912l-7.968-59.776a32 32 0 0 1 63.445333-8.448L467.488 288h63.424l-7.968-59.776a32 32 0 0 1 63.445333-8.448L595.488 288H672a32 32 0 0 1 0 64h-67.978667l8.533334 64H672a32 32 0 0 1 0 64h-50.912l7.968 59.776a32 32 0 0 1-27.498667 35.946667z"  horiz-adv-x="1024" />

    
    <glyph glyph-name="minus-circle" unicode="&#59647;" d="M512-42.66666699999996c235.637333 0 426.666667 191.029333 426.666667 426.666667S747.637333 810.666667 512 810.666667 85.333333 619.637333 85.333333 384s191.029333-426.666667 426.666667-426.666667zM352 416h320a32 32 0 0 0 0-64H352a32 32 0 0 0 0 64z"  horiz-adv-x="1024" />

    
    <glyph glyph-name="member" unicode="&#59648;" d="M495.274667 725.5466670000001a21.333333 21.333333 0 0 0 33.450666 0L704.533333 503.466667a21.333333 21.333333 0 0 1 25.130667-6.368l171.392 73.450666a21.333333 21.333333 0 0 0 29.301333-23.946666l-94.912-457.28A85.333333 85.333333 0 0 0 751.893333 21.33333300000004H272.106667a85.333333 85.333333 0 0 0-83.552 67.989334l-94.912 457.28a21.333333 21.333333 0 0 0 29.290666 23.946666l171.402667-73.450666a21.333333 21.333333 0 0 1 25.130667 6.368l175.808 222.08z"  horiz-adv-x="1024" />

    
    <glyph glyph-name="comment" unicode="&#59649;" d="M512 810.666667c235.637333 0 426.666667-191.029333 426.666667-426.666667S747.637333-42.66666699999996 512-42.66666699999996a424.778667 424.778667 0 0 0-219.125333 60.501334 2786.56 2786.56 0 0 1-20.053334 11.765333l-104.405333-28.48c-23.893333-6.506667-45.802667 15.413333-39.285333 39.296l28.437333 104.288c-11.008 18.688-18.218667 31.221333-21.802667 37.909333A424.885333 424.885333 0 0 0 85.333333 384C85.333333 619.637333 276.362667 810.666667 512 810.666667z m-102.218667-549.76a32 32 0 1 1-40.917333-49.216A223.178667 223.178667 0 0 1 512 160c52.970667 0 103.189333 18.485333 143.104 51.669333a32 32 0 1 1-40.906667 49.216A159.189333 159.189333 0 0 0 512 224a159.189333 159.189333 0 0 0-102.218667 36.906667z"  horiz-adv-x="1024" />

    
    <glyph glyph-name="community" unicode="&#59650;" d="M512 810.666667c235.637333 0 426.666667-191.029333 426.666667-426.666667S747.637333-42.66666699999996 512-42.66666699999996 85.333333 148.362667 85.333333 384 276.362667 810.666667 512 810.666667z m143.381333-497.781334A159.978667 159.978667 0 0 0 512 224a159.978667 159.978667 0 0 0-143.36 88.853333 32 32 0 1 1-57.301333-28.490666A223.968 223.968 0 0 1 512 160a223.968 223.968 0 0 1 200.682667 124.394667 32 32 0 0 1-57.301334 28.490666z"  horiz-adv-x="1024" />

    
    <glyph glyph-name="fail" unicode="&#59651;" d="M512 810.666667c235.637333 0 426.666667-191.029333 426.666667-426.666667S747.637333-42.66666699999996 512-42.66666699999996 85.333333 148.362667 85.333333 384 276.362667 810.666667 512 810.666667z m-86.474667-296.96a30.570667 30.570667 0 1 1-43.232-43.232L468.768 384l-86.474667-86.474667a30.570667 30.570667 0 1 1 43.232-43.232L512 340.76800000000003l86.474667-86.474667a30.570667 30.570667 0 1 1 43.232 43.232L555.232 384l86.474667 86.474667a30.570667 30.570667 0 1 1-43.232 43.232L512 427.232z"  horiz-adv-x="1024" />

    
    <glyph glyph-name="time" unicode="&#59652;" d="M512-42.66666699999996c235.637333 0 426.666667 191.029333 426.666667 426.666667S747.637333 810.666667 512 810.666667 85.333333 619.637333 85.333333 384s191.029333-426.666667 426.666667-426.666667zM329.376 246.62400000000002L480 397.258667V576a32 32 0 0 0 64 0v-192a32 32 0 0 0-9.376-22.624l-160-160a32 32 0 1 0-45.248 45.248z"  horiz-adv-x="1024" />

    
    <glyph glyph-name="lightning" unicode="&#59653;" d="M395.765333 309.42933300000004h-171.733333c-22.421333 0-37.888 22.442667-29.909333 43.381334L364.768 800.725333A32 32 0 0 0 394.666667 821.333333h287.957333c22.72 0 38.208-23.018667 29.632-44.064l-99.36-243.882666h187.050667c27.509333 0 42.186667-32.426667 24.042666-53.098667l-458.602666-522.56c-22.293333-25.408-63.626667-3.392-54.976 29.28l85.354666 322.421333z"  horiz-adv-x="1024" />

    
    <glyph glyph-name="home" unicode="&#59654;" d="M555.541333 778.005333l312.874667-224.565333A117.333333 117.333333 0 0 0 917.333333 458.133333V96c0-64.8-52.533333-117.333333-117.333333-117.333333H640V149.33333300000004c0 70.688-57.312 128-128 128s-128-57.312-128-128v-170.666666H224c-64.8 0-117.333333 52.533333-117.333333 117.333333V458.122667a117.333333 117.333333 0 0 0 48.917333 95.317333l312.874667 224.565333a74.666667 74.666667 0 0 0 87.082666 0z"  horiz-adv-x="1024" />

    
    <glyph glyph-name="cellphone" unicode="&#59655;" d="M746.666667 810.666667c64.8 0 117.333333-52.533333 117.333333-117.333334v-618.666666c0-64.8-52.533333-117.333333-117.333333-117.333334H277.333333c-64.8 0-117.333333 52.533333-117.333333 117.333334V693.333333c0 64.8 52.533333 117.333333 117.333333 117.333334h469.333334zM597.333333 117.33333300000004H426.666667a32 32 0 0 1 0-64h170.666666a32 32 0 0 1 0 64z m149.333334 629.333334H277.333333a53.333333 53.333333 0 0 1-53.333333-53.333334v-480h576V693.333333a53.333333 53.333333 0 0 1-53.333333 53.333334z"  horiz-adv-x="1024" />

    
    <glyph glyph-name="exclamation" unicode="&#59656;" d="M512 810.666667c235.637333 0 426.666667-191.029333 426.666667-426.666667S747.637333-42.66666699999996 512-42.66666699999996 85.333333 148.362667 85.333333 384 276.362667 810.666667 512 810.666667z m0-544a42.666667 42.666667 0 1 1 0-85.333334 42.666667 42.666667 0 0 1 0 85.333334z m0 362.666666a42.666667 42.666667 0 0 1-42.666667-42.666666v-234.666667a42.666667 42.666667 0 1 1 85.333334 0V586.666667a42.666667 42.666667 0 0 1-42.666667 42.666666z"  horiz-adv-x="1024" />

    
    <glyph glyph-name="collect" unicode="&#59657;" d="M335.008-20.629332999999974c-35.914667-22.314667-82.88-10.773333-104.693333 25.557333a77.333333 77.333333 0 0 0-8.96 57.429333l46.485333 198.24a13.141333 13.141333 0 0 1-4.021333 12.864l-152.16 132.586667c-31.605333 27.52-35.253333 75.648-8.234667 107.733333a75.68 75.68 0 0 0 51.733333 26.752L354.848 556.8c4.352 0.362667 8.245333 3.232 10.026667 7.594667l76.938666 188.170666c16.032 39.2 60.618667 57.92 99.52 41.461334a76.309333 76.309333 0 0 0 40.832-41.461334l76.938667-188.16c1.781333-4.373333 5.674667-7.253333 10.026667-7.605333l199.712-16.277333c41.877333-3.413333 72.885333-40.458667 69.568-82.517334a76.938667 76.938667 0 0 0-26.08-51.978666l-152.16-132.586667c-3.541333-3.082667-5.141333-8.074667-4.021334-12.853333l46.485334-198.24c9.621333-41.013333-15.36-82.336-56.138667-92.224a75.285333 75.285333 0 0 0-57.525333 9.237333l-170.976 106.24a11.296 11.296 0 0 1-12.010667 0l-170.986667-106.24z"  horiz-adv-x="1024" />

    
    <glyph glyph-name="data" unicode="&#59658;" d="M512 810.666667c235.637333 0 426.666667-191.029333 426.666667-426.666667S747.637333-42.66666699999996 512-42.66666699999996 85.333333 148.362667 85.333333 384 276.362667 810.666667 512 810.666667z m214.592-318.677334a32 32 0 0 1-45.248-0.064L544.736 354.93333299999995l-81.792 89.109334a32 32 0 0 1-46.613333 0.576l-119.36-123.733334a32 32 0 1 1 46.058666-44.437333l95.754667 99.264 81.418667-88.704a32 32 0 0 1 46.24-0.96l160.213333 160.693333a32 32 0 0 1-0.064 45.248z"  horiz-adv-x="1024" />

    
    <glyph glyph-name="qa" unicode="&#59659;" d="M512 810.666667c235.637333 0 426.666667-191.029333 426.666667-426.666667S747.637333-42.66666699999996 512-42.66666699999996a424.778667 424.778667 0 0 0-219.125333 60.501334 2786.56 2786.56 0 0 1-20.053334 11.765333l-104.405333-28.48c-23.893333-6.506667-45.802667 15.413333-39.285333 39.296l28.437333 104.288c-11.008 18.688-18.218667 31.221333-21.802667 37.909333A424.885333 424.885333 0 0 0 85.333333 384C85.333333 619.637333 276.362667 810.666667 512 810.666667z m0-586.666667a32 32 0 1 1 0-64 32 32 0 0 1 0 64z m-2.517333 373.333333c-48.416 0-92.746667-24.16-118.613334-63.413333a137.088 137.088 0 0 1-15.978666-33.237333 32 32 0 0 1 60.906666-19.690667c2.016 6.24 4.885333 12.202667 8.522667 17.717333C458.4 520.085333 482.709333 533.333333 509.482667 533.333333 552.277333 533.333333 586.666667 499.733333 586.666667 458.666667s-34.4-74.666667-77.194667-74.666667a32 32 0 0 1-32-32v-64a32 32 0 0 1 64 0v35.584C603.946667 337.80266700000004 650.666667 392.768 650.666667 458.666667c0 76.757333-63.381333 138.666667-141.194667 138.666666z"  horiz-adv-x="1024" />

    
    <glyph glyph-name="eye" unicode="&#59660;" d="M512 704c156.448 0 296.021333-98.730667 418.410667-291.605333a52.938667 52.938667 0 0 0 0-56.789334C808.021333 162.73066700000004 668.448 64 512 64c-156.448 0-296.021333 98.730667-418.410667 291.605333a52.938667 52.938667 0 0 0 0 56.789334C215.978667 605.269333 355.552 704 512 704z m0-128c-106.037333 0-192-85.962667-192-192s85.962667-192 192-192 192 85.962667 192 192-85.962667 192-192 192z m0-320c70.688 0 128 57.312 128 128s-57.312 128-128 128-128-57.312-128-128 57.312-128 128-128z"  horiz-adv-x="1024" />

    
    <glyph glyph-name="camera" unicode="&#59661;" d="M659.925333 768a74.666667 74.666667 0 0 0 71.338667-52.618667L754.56 640H821.333333c64.8 0 117.333333-52.533333 117.333334-117.333333v-426.666667c0-64.8-52.533333-117.333333-117.333334-117.333333H202.666667c-64.8 0-117.333333 52.533333-117.333334 117.333333V522.666667c0 64.8 52.533333 117.333333 117.333334 117.333333h66.773333l23.296 75.381333A74.666667 74.666667 0 0 0 364.074667 768h295.850666zM512 490.666667c-88.362667 0-160-71.637333-160-160 0-88.362667 71.637333-160 160-160 88.362667 0 160 71.637333 160 160 0 88.362667-71.637333 160-160 160z m0-256a96 96 0 1 1 0 192 96 96 0 0 1 0-192z"  horiz-adv-x="1024" />

    
    <glyph glyph-name="card" unicode="&#59662;" d="M938.666667 565.333333H85.333333v74.666667c0 64.8 52.533333 117.333333 117.333334 117.333333h618.666666c64.8 0 117.333333-52.533333 117.333334-117.333333v-74.666667z m0-64v-373.333333c0-64.8-52.533333-117.333333-117.333334-117.333333H202.666667c-64.8 0-117.333333 52.533333-117.333334 117.333333V501.333333h853.333334zM757.333333 224H650.666667a32 32 0 0 1 0-64h106.666666a32 32 0 0 1 0 64z"  horiz-adv-x="1024" />

    
    <glyph glyph-name="plus-circle" unicode="&#59663;" d="M512 810.666667c235.637333 0 426.666667-191.029333 426.666667-426.666667S747.637333-42.66666699999996 512-42.66666699999996 85.333333 148.362667 85.333333 384 276.362667 810.666667 512 810.666667z m0-234.666667a32 32 0 0 1-32-32v-128H352a32 32 0 0 1 0-64h128v-128a32 32 0 0 1 64 0V352h128a32 32 0 0 1 0 64H544V544a32 32 0 0 1-32 32z"  horiz-adv-x="1024" />

    
    <glyph glyph-name="film" unicode="&#59664;" d="M512 810.666667c235.637333 0 426.666667-191.029333 426.666667-426.666667a432.554667 432.554667 0 0 0-4.490667-62.112 423.36 423.36 0 0 0-8.789333-43.914667l-0.458667-1.749333-0.330667-1.301333-1.418666-5.216a423.210667 423.210667 0 0 0-9.365334-29.546667l-1.066666-2.944a426.698667 426.698667 0 0 0-94.357334-150.154667c22.986667-3.082667 43.818667-10.837333 62.4-23.466666a32 32 0 1 0-35.957333-52.938667c-30.485333 20.714667-77.781333 18.965333-144.053333-9.386667a343.68 343.68 0 0 0-5.706667-2.773333l-1.834667-0.853333c-1.568-0.746667-3.136-1.472-4.704-2.186667l-0.874666-0.394667c-1.834667-0.832-3.68-1.653333-5.525334-2.453333l-0.778666-0.330667c-1.706667-0.746667-3.413333-1.472-5.12-2.197333-0.533333-0.202667-1.034667-0.416-1.546667-0.629333-3.658667-1.514667-7.349333-2.986667-11.061333-4.394667l-2.250667-0.832a278.826667 278.826667 0 0 0-3.914667-1.450667l-2.453333-0.874666c-1.6-0.576-3.232-1.152-4.853333-1.706667a322.752 322.752 0 0 0-6.08-2.026667l-1.941334-0.618666c-1.781333-0.576-3.573333-1.130667-5.365333-1.685334l-0.693333-0.202666c-1.717333-0.533333-3.445333-1.034667-5.173334-1.536l-2.101333-0.597334c-1.248-0.362667-2.485333-0.704-3.733333-1.045333l-3.082667-0.832c-1.173333-0.32-2.346667-0.629333-3.530667-0.928l-2.922666-0.736c-1.706667-0.426667-3.434667-0.853333-5.162667-1.258667l-1.173333-0.266666c-10.346667-2.410667-20.821333-4.448-31.424-6.08l-2.592-0.394667-0.746667-0.106667A426.250667 426.250667 0 0 0 512-42.66666699999996C276.362667-42.66666699999996 85.333333 148.362667 85.333333 384S276.362667 810.666667 512 810.666667z m0-522.666667a64 64 0 1 1 0-128 64 64 0 0 1 0 128z m160 160a64 64 0 1 1 0-128 64 64 0 0 1 0 128z m-320 0a64 64 0 1 1 0-128 64 64 0 0 1 0 128z m160 160a64 64 0 1 1 0-128 64 64 0 0 1 0 128z"  horiz-adv-x="1024" />

    
    <glyph glyph-name="coupon" unicode="&#59665;" d="M821.333333 757.333333c64.8 0 117.333333-52.533333 117.333334-117.333333v-149.333333a32 32 0 0 0-32-32 74.666667 74.666667 0 0 1 0-149.333334 32 32 0 0 0 32-32v-149.333333c0-64.8-52.533333-117.333333-117.333334-117.333333H202.666667c-64.8 0-117.333333 52.533333-117.333334 117.333333V277.33333300000004a32 32 0 0 0 32 32 74.666667 74.666667 0 0 1 0 149.333334 32 32 0 0 0-32 32V640c0 64.8 52.533333 117.333333 117.333334 117.333333h618.666666zM428.576 566.0053330000001a32 32 0 0 1-43.733333 2.581334l-1.514667-1.344a32 32 0 0 1-2.581333-43.733334L452.565333 437.333333H405.333333l-1.877333-0.053333A32 32 0 0 1 373.333333 405.333333l0.053334-1.877333A32 32 0 0 1 405.333333 373.33333300000004h80v-42.666666H405.333333l-1.877333-0.053334A32 32 0 0 1 373.333333 298.66666699999996l0.053334-1.877334A32 32 0 0 1 405.333333 266.66666699999996h80v-42.666667l0.053334-1.877333A32 32 0 0 1 517.333333 192l1.877334 0.053333A32 32 0 0 1 549.333333 224v42.666667H618.666667l1.877333 0.053333A32 32 0 0 1 650.666667 298.66666699999996l-0.053334 1.877333A32 32 0 0 1 618.666667 330.66666699999996h-69.333334v42.666666H618.666667l1.877333 0.053334A32 32 0 0 1 650.666667 405.333333l-0.053334 1.877334A32 32 0 0 1 618.666667 437.333333h-47.253334l71.84 86.186667 1.248 1.589333a32 32 0 0 1-50.421333 39.381334L512 465.984l-82.08 98.506667z"  horiz-adv-x="1024" />

    
    <glyph glyph-name="hot" unicode="&#59666;" d="M423.477333-42.66666699999996S45.045333 40.57600000000002 214.186667 453.717333c0 0 38.4-45.909333 33.12-68 0 0 30.101333 104.277333 95.072 166.570667C398.165333 605.8133330000001 454.848 756.288 402.570667 810.666667c0 0 258.933333-54.378667 287.754666-326.378667 0 0 33.12 86.666667 101.12 95.232 0 0-20.906667-47.616 0-119.04 0 0 214.485333-367.146667-155.157333-491.242667 0 0 110.805333 125.813333-124.181333 341.717334 0 0-55.402667-115.626667-88.533334-156.373334-0.096-0.106667-92.522667-103.722667-0.096-197.248z"  horiz-adv-x="1024" />

    
    <glyph glyph-name="penceil" unicode="&#59667;" d="M896 21.781333000000018c17.674667 0 32-14.432 32-32.224A32.106667 32.106667 0 0 0 896-42.66666699999996H128a32.106667 32.106667 0 0 0-32 32.213334 32.106667 32.106667 0 0 0 32 32.234666zM597.898667 657.674667l0.106666-0.106667 150.944-152a21.333333 21.333333 0 0 0 0-30.069333l-324.8-327.061334a159.690667 159.690667 0 0 0-78.048-43.264l-152.085333-34.432c-23.808-5.386667-44.608 16.981333-37.706667 40.554667l43.296 147.84a161.344 161.344 0 0 0 40.32 68.373333l327.797334 330.058667a21.333333 21.333333 0 0 0 30.176 0.106667zM840.746667 765.397333l15.082666-15.189333c45.824-46.144 45.824-120.949333 0-167.082667l-31.552-31.786666a21.333333 21.333333 0 0 0-30.176-0.106667l-0.106666 0.106667-150.944 152a21.333333 21.333333 0 0 0 0 30.08l31.754666 31.978666a116.768 116.768 0 0 0 165.941334 0z"  horiz-adv-x="1024" />

    
    <glyph glyph-name="edit" unicode="&#59564;" d="M862.709333 779.9573330000001a32 32 0 1 0 45.248-45.248L455.445333 282.18666700000006a32 32 0 1 0-45.258666 45.258666L862.709333 779.946667zM853.333333 448a32 32 0 0 0 64 0v-352c0-64.8-52.533333-117.333333-117.333333-117.333333H224c-64.8 0-117.333333 52.533333-117.333333 117.333333V672c0 64.8 52.533333 117.333333 117.333333 117.333333h341.333333a32 32 0 0 0 0-64H224a53.333333 53.333333 0 0 1-53.333333-53.333333v-576a53.333333 53.333333 0 0 1 53.333333-53.333333h576a53.333333 53.333333 0 0 1 53.333333 53.333333V448z"  horiz-adv-x="1024" />

    
    <glyph glyph-name="safety" unicode="&#59566;" d="M512 810.666667c72.533333 0 139.808-8.362667 200.202667-22.325334 21.258667-4.906667 40.192-10.208 56.586666-15.52 9.301333-3.018667 16.106667-5.472 20.245334-7.114666C831.733333 751.093333 864 703.893333 864 657.376v-385.034667c0-43.402667-25.130667-95.52-58.837333-121.109333l-227.626667-172.810667c-36.992-28.085333-94.005333-28.149333-131.072 0l-227.626667 172.810667C185.28 176.71466699999996 160 229.08799999999997 160 272.34133299999996V657.376c0 46.826667 32.170667 94.218667 75.157333 108.405333 4.16 1.642667 10.901333 4.074667 20.053334 7.04a684.437333 684.437333 0 0 0 56.586666 15.52C372.192 802.314667 439.466667 810.666667 512 810.666667z m0-64c-67.456 0-129.930667-7.765333-185.781333-20.682667-19.424-4.48-36.586667-9.28-51.274667-14.048-5.056-1.632-9.418667-3.146667-13.056-4.48-2.058667-0.746667-3.349333-1.248-3.84-1.450667a32 32 0 0 0-2.485333-0.885333c-16.074667-5.034667-31.562667-27.626667-31.562667-47.744v-385.034667c0-23.498667 16.128-56.917333 33.536-70.133333l227.626667-172.810667c14.176-10.773333 39.530667-10.741333 53.674666 0l227.626667 172.810667C784 215.530667 800 248.69333300000005 800 272.34133299999996V657.376c0 19.84-15.626667 42.506667-32 47.882667l-2.048 0.746666a143.829333 143.829333 0 0 1-3.84 1.450667c-3.637333 1.333333-8 2.848-13.056 4.48a620.778667 620.778667 0 0 1-51.274667 14.048C641.930667 738.901333 579.456 746.666667 512 746.666667z m137.354667-190.72a32 32 0 0 0 45.290666-45.226667l-213.013333-213.333333a32 32 0 0 0-45.226667-0.064l-106.986666 106.549333a32 32 0 1 0 45.162666 45.344l84.341334-83.989333z"  horiz-adv-x="1024" />

    
    <glyph glyph-name="help-o" unicode="&#59570;" d="M878.08 164.72533299999998a32 32 0 0 0-54.88 32.938667A360.789333 360.789333 0 0 1 874.666667 384c0 200.298667-162.368 362.666667-362.666667 362.666667S149.333333 584.298667 149.333333 384s162.368-362.666667 362.666667-362.666667a360.789333 360.789333 0 0 1 186.314667 51.445334 32 32 0 0 0 32.928-54.88A424.778667 424.778667 0 0 0 512-42.66666699999996C276.362667-42.66666699999996 85.333333 148.362667 85.333333 384S276.362667 810.666667 512 810.666667s426.666667-191.029333 426.666667-426.666667c0-78.293333-21.152-153.568-60.586667-219.274667zM650.666667 458.666667c0-65.898667-46.72-120.853333-109.194667-135.082667V288a32 32 0 0 0-64 0v64a32 32 0 0 0 32 32C552.266667 384 586.666667 417.6 586.666667 458.666667s-34.4 74.666667-77.194667 74.666666c-26.773333 0-51.082667-13.248-65.173333-34.624a73.088 73.088 0 0 1-8.522667-17.717333 32 32 0 0 0-60.885333 19.690667c3.797333 11.754667 9.173333 22.933333 15.978666 33.237333 25.856 39.253333 70.186667 63.413333 118.613334 63.413333C587.274667 597.333333 650.666667 535.424 650.666667 458.666667zM512 160a32 32 0 1 0 0 64 32 32 0 0 0 0-64z"  horiz-adv-x="1024" />

    
    <glyph glyph-name="notinterested" unicode="&#59571;" d="M413.749333 330.954667a32 32 0 1 1 47.168-43.242667l105.088 114.634667a53.333333 53.333333 0 0 1 2.88 68.672 920.672 920.672 0 0 0-61.44 89.44c-17.077333 28.458667 0.821333 73.226667 37.845334 110.250666 10.901333 10.88 17.045333 16.565333 25.813333 23.210667C597.472 713.952 628.074667 725.333333 667.776 725.333333 793.813333 725.333333 874.666667 623.189333 874.666667 475.786667c0-112.405333-113.525333-251.904-344.298667-413.653334a32 32 0 0 0-36.736 0C262.858667 223.89333299999998 149.333333 363.39200000000005 149.333333 475.797333 149.333333 623.189333 230.186667 725.333333 356.213333 725.333333c13.781333 0 26.592-2.026667 38.933334-5.930666a32 32 0 0 1 19.36 60.992A191.093333 191.093333 0 0 1 356.213333 789.333333C191.136 789.333333 85.333333 655.6800000000001 85.333333 475.786667 85.333333 336.21333300000003 210.432 182.46400000000006 456.906667 9.727999999999952a96 96 0 0 1 110.186666 0C813.568 182.46400000000006 938.666667 336.21333300000003 938.666667 475.786667 938.666667 655.6800000000001 832.864 789.333333 667.786667 789.333333c-54.442667 0-98.378667-16.341333-135.392-44.437333-11.669333-8.864-19.541333-16.128-32.352-28.938667-55.424-55.413333-84.16-127.274667-47.477334-188.416a975.872 975.872 0 0 1 60.213334-88.544L413.76 330.954667z"  horiz-adv-x="1024" />

    
    <glyph glyph-name="record" unicode="&#59572;" d="M822.496 422.848l52.053333-29.290667C869.461333 589.44 709.098667 746.666667 512 746.666667c-200.298667 0-362.666667-162.368-362.666667-362.666667s162.368-362.666667 362.666667-362.666667c122.538667 0 234.645333 61.194667 301.578667 161.152a32 32 0 1 0 53.173333-35.616C788.064 29.365332999999964 656.117333-42.66666699999996 512-42.66666699999996 276.362667-42.66666699999996 85.333333 148.362667 85.333333 384S276.362667 810.666667 512 810.666667s426.666667-191.029333 426.666667-426.666667c0-10.954667-0.853333-26.357333-2.517334-46.528-1.930667-23.242667-27.274667-36.682667-47.594666-25.248l-97.450667 54.848a32 32 0 1 0 31.392 55.786667z m-493.12-176.213333L480 397.237333V576a32 32 0 0 0 64 0v-192a32 32 0 0 0-9.376-22.624l-160-160a32 32 0 1 0-45.248 45.248z"  horiz-adv-x="1024" />

    
    <glyph glyph-name="penceil-o" unicode="&#59573;" d="M896 32a32 32 0 0 0 0-64H128a32 32 0 0 0 0 64z m-60.16 733.621333l15.093333-15.093333c45.866667-45.834667 45.866667-120.16 0-166.005333L418.794667 152.661333a160.192 160.192 0 0 0-78.122667-42.986666l-152.245333-34.197334c-23.84-5.365333-44.661333 16.853333-37.749334 40.288l43.338667 146.88a160.042667 160.042667 0 0 0 40.373333 67.925334l435.328 435.050666c45.866667 45.834667 120.245333 45.834667 166.112 0zM636.32 641.696L279.68 285.290667a96.021333 96.021333 0 0 1-24.213333-40.746667l-27.946667-94.656 99.093333 22.261333a96.117333 96.117333 0 0 1 46.869334 25.781334L726.933333 551.157333l-90.602666 90.538667z m78.698667 78.656l-33.397334-33.386667 90.602667-90.538666 33.386667 33.376a53.333333 53.333333 0 0 1 0 75.456l-15.093334 15.093333a53.408 53.408 0 0 1-75.498666 0z"  horiz-adv-x="1024" />

    
    <glyph glyph-name="phone-o" unicode="&#59575;" d="M446.272 322.55999999999995a509.653333 509.653333 0 0 0-81.92 100.650667c67.786667 30.474667 112.138667 93.461333 112.138667 169.792C476.48 701.408 388.96 789.333333 280.906667 789.333333 170.058667 789.333333 85.333333 707.253333 85.333333 593.002667c0-158.250667 82.56-328.554667 200.618667-439.658667 100.010667-94.122667 258.986667-161.738667 413.461333-174.570667 0.832-0.074667 1.674667-0.106667 2.517334-0.106666h41.162666a30.517333 30.517333 0 0 1 0 61.045333h-39.872c-140.672 11.978667-286.026667 73.930667-375.456 158.090667-106.410667 100.16-181.408 254.837333-181.408 395.2 0 80.106667 56.981333 135.285333 134.549334 135.285333 74.282667 0 134.549333-60.533333 134.549333-135.285333 0-60.309333-40.896-107.989333-103.008-123.349334a30.517333 30.517333 0 0 1-19.786667-43.658666c27.573333-53.312 66.037333-104.426667 111.573334-147.690667 51.264-48.693333 109.941333-86.112 172.053333-108.16a30.506667 30.506667 0 0 1 40.362667 24.064c10.453333 67.093333 61.621333 114.026667 126.442666 114.026667 74.272 0 134.549333-60.544 134.549334-135.285334 0-25.578667-7.04-50.026667-20.149334-71.253333a30.528 30.528 0 0 1 51.925334-32.074667A196.096 196.096 0 0 1 938.666667 172.94933300000002c0 108.394667-87.530667 196.330667-195.573334 196.330667-83.072 0-151.210667-52.384-177.621333-128.864-42.368 19.552-82.773333 47.541333-119.2 82.144z"  horiz-adv-x="1024" />

    
    <glyph glyph-name="like-o" unicode="&#59576;" d="M621.674667 487.978667c16.618667 74.24 28.224 127.936 34.837333 161.194666C673.152 732.906667 629.941333 810.666667 544.298667 810.666667c-77.226667 0-116.010667-38.378667-138.88-115.093334l-0.586667-2.24c-13.728-62.058667-34.72-110.165333-62.506667-144.586666a158.261333 158.261333 0 0 0-119.733333-58.965334l-21.909333-0.469333C148.437333 488.192 106.666667 445.184 106.666667 392.501333V74.66666699999996c0-64.8 52.106667-117.333333 116.394666-117.333334h412.522667c84.736 0 160.373333 53.568 189.12 133.92l85.696 239.584c21.802667 60.96-9.536 128.202667-70.005333 150.186667a115.552 115.552 0 0 1-39.488 6.954667H621.674667zM544.256 746.666667c39.253333 0 59.498667-36.48 49.888-84.928-7.573333-38.144-21.984-104.426667-43.221333-198.666667-4.512-20.021333 10.56-39.093333 30.912-39.093333h218.666666c6.101333 0 12.16-1.066667 17.909334-3.168 27.445333-9.984 41.674667-40.554667 31.776-68.266667l-85.568-239.573333C744.981333 57.973333000000025 693.301333 21.33333300000004 635.402667 21.33333300000004H223.498667C194.314667 21.33333300000004 170.666667 45.21600000000001 170.666667 74.66666699999996V392.501333c0 17.866667 14.144 32.448 31.829333 32.821334l21.866667 0.469333a221.12 221.12 0 0 1 167.381333 82.56c34.346667 42.602667 59.146667 99.306667 74.869333 169.877333C482.101333 729.664 499.552 746.666667 544.266667 746.666667z"  horiz-adv-x="1024" />

    
    <glyph glyph-name="position-o" unicode="&#59577;" d="M648.256 45.72799999999995a32 32 0 1 0-40.704 49.386667C758.304 219.30666699999995 832 329.962667 832 424.928 832 602.656 688.693333 746.666667 512 746.666667c-176.693333 0-320-144.010667-320-321.738667 0-115.232 108.416-253.045333 329.173333-409.493333a32 32 0 0 0-37.013333-52.213334C248.021333 130.57066699999996 128 283.146667 128 424.928 128 637.9306670000001 299.882667 810.666667 512 810.666667s384-172.736 384-385.738667c0-118.378667-83.701333-244.053333-247.744-379.2zM512 277.33333300000004c-82.474667 0-149.333333 66.858667-149.333333 149.333334s66.858667 149.333333 149.333333 149.333333 149.333333-66.858667 149.333333-149.333333-66.858667-149.333333-149.333333-149.333334z m0 64a85.333333 85.333333 0 1 1 0 170.666667 85.333333 85.333333 0 0 1 0-170.666667z"  horiz-adv-x="1024" />

    
    <glyph glyph-name="film-o" unicode="&#59578;" d="M844.832 10.655999999999949c-30.485333 20.714667-77.781333 18.965333-144.053333-9.386667A425.024 425.024 0 0 0 512-42.66666699999996C276.362667-42.66666699999996 85.333333 148.362667 85.333333 384S276.362667 810.666667 512 810.666667s426.666667-191.029333 426.666667-426.666667a425.013333 425.013333 0 0 0-44.405334-189.717333 32 32 0 0 0-57.301333 28.490666A361.013333 361.013333 0 0 1 874.666667 384c0 200.298667-162.368 362.666667-362.666667 362.666667S149.333333 584.298667 149.333333 384s162.368-362.666667 362.666667-362.666667c56.704 0 111.488 13.013333 161.12 37.653334l1.6 0.746666c84.746667 36.437333 154.176 39.125333 206.08 3.861334a32 32 0 1 0-35.968-52.938667zM512 480a64 64 0 1 0 0 128 64 64 0 0 0 0-128z m160-160a64 64 0 1 0 0 128 64 64 0 0 0 0-128zM512 160a64 64 0 1 0 0 128 64 64 0 0 0 0-128zM352 320a64 64 0 1 0 0 128 64 64 0 0 0 0-128z"  horiz-adv-x="1024" />

    
    <glyph glyph-name="map" unicode="&#59579;" d="M85.333333 426.282667C85.333333 444.170667 99.658667 458.666667 117.333333 458.666667s32-14.506667 32-32.384V109.866667c0-5.962667 4.778667-10.794667 10.666667-10.794667a10.56 10.56 0 0 1 5.045333 1.28l154.848 84.021333a73.898667 73.898667 0 0 0 72.853334-1.290666l252.544-148.842667a10.56 10.56 0 0 1 10.122666-0.341333l213.333334 107.264c3.626667 1.824 5.92 5.568 5.92 9.664V426.282667C874.666667 444.170667 888.992 458.666667 906.666667 458.666667s32-14.506667 32-32.384V150.82666700000004c0-28.682667-16.053333-54.890667-41.44-67.658667l-213.333334-107.264a73.898667 73.898667 0 0 0-70.805333 2.378667L360.533333 127.10400000000004a10.56 10.56 0 0 1-10.410666 0.192l-154.848-84.032a73.973333 73.973333 0 0 0-35.285334-8.96c-41.237333 0-74.666667 33.813333-74.666666 75.552V426.282667z m672 132.266666c0-87.808-73.173333-192.917333-217.056-320.288a42.666667 42.666667 0 0 0-56.554666 0C339.829333 365.62133300000005 266.666667 470.741333 266.666667 558.5493329999999 266.666667 692.032 376.64 800 512 800s245.333333-107.968 245.333333-241.450667z m-426.666666 0c0-61.514667 59.712-149.557333 181.333333-259.701333 121.621333 110.144 181.333333 198.186667 181.333333 259.701333C693.333333 656.4159999999999 612.277333 736 512 736s-181.333333-79.573333-181.333333-177.450667zM512 490.666667a64 64 0 1 0 0 128 64 64 0 0 0 0-128z"  horiz-adv-x="1024" />

    
    <glyph glyph-name="movieticket-o" unicode="&#59580;" d="M640 501.333333a32 32 0 0 0 0-64H384a32 32 0 0 0 0 64h256z m0-170.666666a32 32 0 0 0 0-64H384a32 32 0 0 0 0 64h256zM117.333333 458.666667a32 32 0 0 0-32 32V640c0 64.8 52.533333 117.333333 117.333334 117.333333h618.666666c64.8 0 117.333333-52.533333 117.333334-117.333333v-149.333333a32 32 0 0 0-32-32 74.666667 74.666667 0 0 1 0-149.333334 32 32 0 0 0 32-32v-149.333333c0-64.8-52.533333-117.333333-117.333334-117.333333H202.666667c-64.8 0-117.333333 52.533333-117.333334 117.333333V277.33333300000004a32 32 0 0 0 32 32 74.666667 74.666667 0 0 1 0 149.333334z m138.666667-74.666667c0-65.568-45.514667-120.512-106.666667-134.954667V128a53.333333 53.333333 0 0 1 53.333334-53.333333h618.666666a53.333333 53.333333 0 0 1 53.333334 53.333333V249.04533300000003C813.514667 263.48800000000006 768 318.432 768 384c0 65.568 45.514667 120.512 106.666667 134.954667V640a53.333333 53.333333 0 0 1-53.333334 53.333333H202.666667a53.333333 53.333333 0 0 1-53.333334-53.333333v-121.045333C210.485333 504.512 256 449.568 256 384z"  horiz-adv-x="1024" />

    
    <glyph glyph-name="order" unicode="&#59581;" d="M821.333333 640a32 32 0 0 0 64 0v-565.333333c0-64.8-52.533333-117.333333-117.333333-117.333334H256c-64.8 0-117.333333 52.533333-117.333333 117.333334V693.333333c0 64.8 52.533333 117.333333 117.333333 117.333334h597.333333a32 32 0 0 0 0-64H256a53.333333 53.333333 0 0 1-53.333333-53.333334v-618.666666a53.333333 53.333333 0 0 1 53.333333-53.333334h512a53.333333 53.333333 0 0 1 53.333333 53.333334V640zM341.333333 458.666667a32 32 0 0 0 0 64h341.333334a32 32 0 0 0 0-64H341.333333z m0-170.666667a32 32 0 0 0 0 64h213.333334a32 32 0 0 0 0-64H341.333333z"  horiz-adv-x="1024" />

    
    <glyph glyph-name="find-o" unicode="&#59582;" d="M512 810.666667c235.637333 0 426.666667-191.029333 426.666667-426.666667S747.637333-42.66666699999996 512-42.66666699999996 85.333333 148.362667 85.333333 384 276.362667 810.666667 512 810.666667z m0-64c-200.298667 0-362.666667-162.368-362.666667-362.666667s162.368-362.666667 362.666667-362.666667 362.666667 162.368 362.666667 362.666667-162.368 362.666667-362.666667 362.666667z m149.162667-158.901334a42.666667 42.666667 0 0 0 54.602666-54.602666L637.642667 316.15999999999997a96 96 0 0 0-57.813334-57.802667l-216.992-78.122666a42.666667 42.666667 0 0 0-54.602666 54.602666l78.122666 217.002667a96 96 0 0 0 57.813334 57.802667z m-20.970667-75.573333l-174.346667-62.762667a32 32 0 0 1-19.274666-19.274666l-62.762667-174.346667 174.346667 62.762667a32 32 0 0 1 19.274666 19.274666l62.762667 174.346667z"  horiz-adv-x="1024" />

    
    <glyph glyph-name="copy" unicode="&#59583;" d="M394.666667 789.333333h448a74.666667 74.666667 0 0 0 74.666666-74.666666v-448a74.666667 74.666667 0 0 0-74.666666-74.666667H394.666667a74.666667 74.666667 0 0 0-74.666667 74.666667V714.666667a74.666667 74.666667 0 0 0 74.666667 74.666666z m0-64a10.666667 10.666667 0 0 1-10.666667-10.666666v-448a10.666667 10.666667 0 0 1 10.666667-10.666667h448a10.666667 10.666667 0 0 1 10.666666 10.666667V714.666667a10.666667 10.666667 0 0 1-10.666666 10.666666H394.666667z m245.333333-597.333333a32 32 0 0 0 64 0v-74.666667a74.666667 74.666667 0 0 0-74.666667-74.666666H181.333333a74.666667 74.666667 0 0 0-74.666666 74.666666V501.333333a74.666667 74.666667 0 0 0 74.666666 74.666667h74.666667a32 32 0 0 0 0-64h-74.666667a10.666667 10.666667 0 0 1-10.666666-10.666667v-448a10.666667 10.666667 0 0 1 10.666666-10.666666h448a10.666667 10.666667 0 0 1 10.666667 10.666666v74.666667z"  horiz-adv-x="1024" />

    
    <glyph glyph-name="member-o" unicode="&#59584;" d="M311.114667 524.757333L471.146667 726.901333a52.106667 52.106667 0 0 0 81.706666 0l160.032-202.144 153.152 65.632a52.106667 52.106667 0 0 0 71.541334-58.474666l-89.44-430.933334a112.416 112.416 0 0 0-110.08-89.568H285.941333a112.416 112.416 0 0 0-110.08 89.568l-89.429333 430.933334a52.106667 52.106667 0 0 0 71.541333 58.474666l153.152-65.632zM512 675.392L355.648 477.898667a52.106667 52.106667 0 0 0-61.376-15.552l-140.544 60.234666 84.8-408.586666a48.416 48.416 0 0 1 47.402667-38.581334h452.138666a48.416 48.416 0 0 1 47.402667 38.581334l84.8 408.586666-140.544-60.234666a52.106667 52.106667 0 0 0-61.376 15.552L512 675.392z"  horiz-adv-x="1024" />

    
    <glyph glyph-name="minus-circle-o" unicode="&#59585;" d="M512-42.66666699999996C276.362667-42.66666699999996 85.333333 148.362667 85.333333 384S276.362667 810.666667 512 810.666667s426.666667-191.029333 426.666667-426.666667-191.029333-426.666667-426.666667-426.666667z m0 64c200.298667 0 362.666667 162.368 362.666667 362.666667S712.298667 746.666667 512 746.666667 149.333333 584.298667 149.333333 384s162.368-362.666667 362.666667-362.666667zM352 416h320a32 32 0 0 0 0-64H352a32 32 0 0 0 0 64z"  horiz-adv-x="1024" />

    
    <glyph glyph-name="cardpackage" unicode="&#59586;" d="M832 501.333333H192v-160h213.333333a32 32 0 0 0 32-32 74.666667 74.666667 0 0 1 149.333334 0 32 32 0 0 0 32 32h213.333333V501.333333z m0 64V672a53.333333 53.333333 0 0 1-53.333333 53.333333H245.333333a53.333333 53.333333 0 0 1-53.333333-53.333333v-106.666667h640z m0-288H646.954667C632.512 216.181333 577.568 170.66666699999996 512 170.66666699999996c-65.568 0-120.512 45.514667-134.954667 106.666666H192v-181.333333a53.333333 53.333333 0 0 1 53.333333-53.333333h533.333334a53.333333 53.333333 0 0 1 53.333333 53.333333V277.33333300000004zM245.333333 789.333333h533.333334c64.8 0 117.333333-52.533333 117.333333-117.333333v-576c0-64.8-52.533333-117.333333-117.333333-117.333333H245.333333c-64.8 0-117.333333 52.533333-117.333333 117.333333V672c0 64.8 52.533333 117.333333 117.333333 117.333333z"  horiz-adv-x="1024" />

    
    <glyph glyph-name="topic-o" unicode="&#59591;" d="M476.021333 352h63.424l8.533334 64h-63.424l-8.533334-64z m-8.533333-64l-9.098667-68.224a32 32 0 0 0-63.445333 8.448L402.912 288H352a32 32 0 0 0 0 64h59.445333l8.533334 64H352a32 32 0 0 0 0 64h76.512l9.098667 68.224a32 32 0 0 0 63.445333-8.448L493.088 480h63.424l9.098667 68.224a32 32 0 0 0 63.445333-8.448L621.088 480H672a32 32 0 0 0 0-64h-59.445333l-8.533334-64H672a32 32 0 0 0 0-64h-76.512l-9.098667-68.224a32 32 0 0 0-63.445333 8.448L530.912 288h-63.424zM157.568 144.70399999999995c-11.008 18.688-18.218667 31.221333-21.802667 37.909333A424.885333 424.885333 0 0 0 85.333333 384C85.333333 619.637333 276.362667 810.666667 512 810.666667s426.666667-191.029333 426.666667-426.666667-191.029333-426.666667-426.666667-426.666667a424.778667 424.778667 0 0 0-219.125333 60.501334 2786.56 2786.56 0 0 1-20.053334 11.765333l-104.405333-28.48c-23.893333-6.506667-45.802667 15.413333-39.285333 39.296l28.437333 104.288z m65.301333-3.786667l-17.258666-63.306666 63.306666 17.258666a32 32 0 0 0 24.522667-3.210666 4515.84 4515.84 0 0 0 32.352-18.944A360.789333 360.789333 0 0 1 512 21.33333300000004c200.298667 0 362.666667 162.368 362.666667 362.666667S712.298667 746.666667 512 746.666667 149.333333 584.298667 149.333333 384c0-60.586667 14.848-118.954667 42.826667-171.136 3.712-6.912 12.928-22.826667 27.370667-47.232a32 32 0 0 0 3.338666-24.714667z"  horiz-adv-x="1024" />

    
    <glyph glyph-name="attention" unicode="&#59592;" d="M790.976 705.28a32 32 0 0 0 45.258667 0.021333A457.248 457.248 0 0 0 970.666667 380.88533299999995a457.248 457.248 0 0 0-134.293334-324.277333 32 32 0 1 0-45.258666 45.248A393.258667 393.258667 0 0 1 906.666667 380.88533299999995a393.258667 393.258667 0 0 1-115.68 279.146667 32 32 0 0 0 0 45.258667z m-603.36-0.128a32 32 0 0 0 45.269333-45.248A393.258667 393.258667 0 0 1 117.333333 380.88533299999995a393.258667 393.258667 0 0 1 115.466667-278.944 32 32 0 0 0-45.28-45.237333A457.248 457.248 0 0 0 53.333333 380.88533299999995a457.248 457.248 0 0 0 134.293334 324.266667zM330.794667 610.133333a32 32 0 0 0 0.032-45.248A255.04 255.04 0 0 1 256 384a255.050667 255.050667 0 0 1 75.146667-181.184 32 32 0 1 0-45.216-45.301333A319.04 319.04 0 0 0 192 384a319.04 319.04 0 0 0 93.546667 226.090667 32 32 0 0 0 45.248 0.032z m407.36 0.266667A319.04 319.04 0 0 0 832 384a319.04 319.04 0 0 0-93.653333-226.208 32 32 0 0 0-45.28 45.237333A255.050667 255.050667 0 0 1 768 384a255.050667 255.050667 0 0 1-75.072 181.12 32 32 0 1 0 45.226667 45.269333zM566.752 512C637.408 512 682.666667 454.826667 682.666667 381.07733299999995c0-58.005333-47.946667-116.789333-140.096-181.237333a53.333333 53.333333 0 0 0-61.141334 0C389.28 264.288 341.333333 323.072 341.333333 381.07733299999995 341.333333 454.826667 386.592 512 457.258667 512c21.632 0 37.514667-5.994667 54.741333-18.421333C529.226667 506.005333 545.109333 512 566.741333 512z m0-64c-8.32 0-14.56-3.328-27.52-14.538667l-6.336-5.504a32 32 0 0 0-41.770667 0l-6.336 5.504c-12.96 11.2-19.2 14.538667-27.52 14.538667C425.653333 448 405.333333 422.325333 405.333333 381.07733299999995c0-29.941333 34.410667-72.938667 106.666667-124.48 72.256 51.541333 106.666667 94.538667 106.666667 124.48C618.666667 422.325333 598.346667 448 566.741333 448z"  horiz-adv-x="1024" />

    
    <glyph glyph-name="ticket" unicode="&#59593;" d="M220.544 701.386667c22.72 62.4 98.858667 88.885333 168.618667 63.498666L790.848 618.666667 821.333333 618.666667c64.8 0 117.333333-52.533333 117.333334-117.333334v-117.333333a32 32 0 0 0-32-32 64 64 0 1 1 0-128 32 32 0 0 0 32-32v-117.333333c0-64.8-52.533333-117.333333-117.333334-117.333334H202.666667c-64.8 0-117.333333 52.533333-117.333334 117.333334V192a32 32 0 0 0 32 32 64 64 0 1 1 0 128 32 32 0 0 0-32 32V501.333333c0 60.586667 45.92 110.453333 104.853334 116.682667zM821.333333 554.666667h-41.226666l-0.064-0.16-0.469334 0.170666L202.666667 554.666667a53.333333 53.333333 0 0 1-53.333334-53.333334v-89.365333c55.210667-14.208 96-64.32 96-123.968s-40.789333-109.76-96-123.968V74.66666699999996a53.333333 53.333333 0 0 1 53.333334-53.333334h618.666666a53.333333 53.333333 0 0 1 53.333334 53.333334v89.365333c-55.210667 14.208-96 64.32-96 123.968s40.789333 109.76 96 123.968V501.333333a53.333333 53.333333 0 0 1-53.333334 53.333334zM640.042667 249.27999999999997a32 32 0 0 0 0-64h-256a32 32 0 0 0 0 64z m0 149.333333a32 32 0 0 0 0-64h-256a32 32 0 0 0 0 64z m-272.778667 306.133334c-38.933333 14.165333-77.056 0.917333-86.581333-25.248l-22.144-60.821334H603.733333z"  horiz-adv-x="1024" />

    
    <glyph glyph-name="password" unicode="&#59594;" d="M288 512v74.666667c0 123.722667 100.266667 224 224 224s224-100.224 224-224v-74.666667h10.677333C811.445333 512 864 459.402667 864 394.666667v-320c0-64.821333-52.469333-117.333333-117.322667-117.333334H277.333333C212.554667-42.66666699999996 160 9.930666999999971 160 74.66666699999996V394.666667c0 64.821333 52.469333 117.333333 117.322667 117.333333H288z m64 0h320v74.666667c0 88.426667-71.605333 160-160 160-88.384 0-160-71.626667-160-160v-74.666667zM224 394.666667v-320c0-29.397333 23.914667-53.333333 53.322667-53.333334H746.666667A53.269333 53.269333 0 0 1 800 74.66666699999996V394.666667c0 29.397333-23.914667 53.333333-53.322667 53.333333H277.333333A53.269333 53.269333 0 0 1 224 394.666667z"  horiz-adv-x="1024" />

    
    <glyph glyph-name="men" unicode="&#59595;" d="M795.189333 719.082667H682.666667a32 32 0 1 0 0 64h192a32 32 0 0 0 32-32v-192a32 32 0 1 0-64 0V676.0533330000001l-105.866667-105.866666A350.613333 350.613333 0 0 0 821.333333 341.33333300000004c0-194.4-157.6-352-352-352S117.333333 146.93333299999995 117.333333 341.33333300000004s157.6 352 352 352a350.538667 350.538667 0 0 0 221.6-78.506666l104.256 104.256zM469.333333 53.33333300000004c159.061333 0 288 128.938667 288 288S628.394667 629.333333 469.333333 629.333333 181.333333 500.394667 181.333333 341.33333300000004s128.938667-288 288-288z"  horiz-adv-x="1024" />

    
    <glyph glyph-name="women" unicode="&#59596;" d="M485.333333 128v43.765333C321.077333 185.312 192 322.91200000000003 192 490.666667 192 667.4026670000001 335.264 810.666667 512 810.666667c176.736 0 320-143.264 320-320 0-164.106667-123.52-299.349333-282.666667-317.845334V128H640a32 32 0 0 0 0-64h-90.666667v-77.333333a32 32 0 0 0-64 0V64H384a32 32 0 0 0 0 64h101.333333zM512 234.66666699999996c141.386667 0 256 114.613333 256 256S653.386667 746.666667 512 746.666667 256 632.0533330000001 256 490.666667s114.613333-256 256-256z"  horiz-adv-x="1024" />

    
    <glyph glyph-name="gift" unicode="&#59597;" d="M558.954667 738.6453329999999a101.333333 101.333333 0 1 0 175.509333-101.333333l-19.072-33.034667H864a74.666667 74.666667 0 0 0 74.624-72.106666l0.042667-2.56v-85.333334a74.666667 74.666667 0 0 0-74.666667-74.666666h-10.666667v-288c0-64.810667-52.533333-117.333333-117.333333-117.333334H309.333333c-64.8 0-117.333333 52.522667-117.333333 117.333334v288h-10.666667a74.666667 74.666667 0 0 0-74.624 72.096L106.666667 444.266667v85.333333a74.666667 74.666667 0 0 0 74.666666 74.666667l142.122667 0.010666-19.072 33.034667a101.333333 101.333333 0 1 0 175.509333 101.333333l39.530667-68.448zM789.333333 369.6H256v-288a53.333333 53.333333 0 0 1 53.333333-53.333333h426.666667a53.333333 53.333333 0 0 1 53.333333 53.333333v288z m74.666667 170.666667H181.333333a10.666667 10.666667 0 0 1-10.666666-10.666667v-85.333333a10.666667 10.666667 0 0 1 10.666666-10.666667h682.666667a10.666667 10.666667 0 0 1 10.666667 10.666667v85.333333a10.666667 10.666667 0 0 1-10.666667 10.666667zM373.472 720.3199999999999a37.333333 37.333333 0 0 1-13.653333-51.008l37.536-65.034667h84.010666l1.109334 1.92-58.005334 100.448a37.333333 37.333333 0 0 1-50.986666 13.674667z m291.904 0a37.333333 37.333333 0 0 1-50.986667-13.674667L556.373333 606.1866669999999l1.098667-1.909334h84.021333l37.546667 65.034667a37.333333 37.333333 0 0 1-11.861333 49.888z"  horiz-adv-x="1024" />

    
    <glyph glyph-name="leaderboard" unicode="&#59598;" d="M544 234.66666699999996a32 32 0 0 0-64 0V533.333333a32 32 0 0 0 64 0v-298.666666z m160 0a32 32 0 0 0-64 0V405.333333a32 32 0 0 0 64 0v-170.666666z m-320 0a32 32 0 0 0-64 0V448a32 32 0 0 0 64 0v-213.333333zM202.666667 757.333333h618.666666c64.8 0 117.333333-52.533333 117.333334-117.333333v-512c0-64.8-52.533333-117.333333-117.333334-117.333333H202.666667c-64.8 0-117.333333 52.533333-117.333334 117.333333V640c0 64.8 52.533333 117.333333 117.333334 117.333333z m0-64a53.333333 53.333333 0 0 1-53.333334-53.333333v-512a53.333333 53.333333 0 0 1 53.333334-53.333333h618.666666a53.333333 53.333333 0 0 1 53.333334 53.333333V640a53.333333 53.333333 0 0 1-53.333334 53.333333H202.666667z"  horiz-adv-x="1024" />

    
    <glyph glyph-name="scan" unicode="&#59599;" d="M693.333333 725.333333a32 32 0 0 0 0 64h149.333334a74.666667 74.666667 0 0 0 74.666666-74.666666v-149.333334a32 32 0 0 0-64 0V714.666667a10.666667 10.666667 0 0 1-10.666666 10.666666H693.333333z m160-522.666666a32 32 0 0 0 64 0v-149.333334a74.666667 74.666667 0 0 0-74.666666-74.666666H693.333333a32 32 0 0 0 0 64h149.333334a10.666667 10.666667 0 0 1 10.666666 10.666666V202.66666699999996zM330.666667 42.66666699999996a32 32 0 0 0 0-64H181.333333a74.666667 74.666667 0 0 0-74.666666 74.666666V202.66666699999996a32 32 0 0 0 64 0v-149.333334a10.666667 10.666667 0 0 1 10.666666-10.666666h149.333334zM170.666667 565.333333a32 32 0 0 0-64 0V714.666667a74.666667 74.666667 0 0 0 74.666666 74.666666h149.333334a32 32 0 0 0 0-64H181.333333a10.666667 10.666667 0 0 1-10.666666-10.666666v-149.333334z m629.333333-149.333333a32 32 0 0 0 0-64H224a32 32 0 0 0 0 64h576z"  horiz-adv-x="1024" />

    
    <glyph glyph-name="calendar" unicode="&#59600;" d="M725.333333 725.333333h74.709334C864.853333 725.333333 917.333333 672.810667 917.333333 607.904V96.10666700000002C917.333333 31.242666999999983 864.832-21.33333300000004 800.042667-21.33333300000004H223.957333C159.146667-21.33333300000004 106.666667 31.189333000000033 106.666667 96.096V607.893333C106.666667 672.757333 159.168 725.333333 223.957333 725.333333H298.666667v32a32 32 0 0 0 64 0v-32h298.666666v32a32 32 0 0 0 64 0v-32z m0-64v-32a32 32 0 0 0-64 0v32H362.666667v-32a32 32 0 0 0-64 0v32h-74.709334A53.354667 53.354667 0 0 1 170.666667 607.904V96.10666700000002A53.301333 53.301333 0 0 1 223.957333 42.66666699999996h576.085334A53.354667 53.354667 0 0 1 853.333333 96.096V607.893333A53.301333 53.301333 0 0 1 800.042667 661.333333H725.333333z m-10.666666-224a32 32 0 0 0 0-64H309.333333a32 32 0 0 0 0 64h405.333334zM586.666667 277.33333300000004a32 32 0 0 0 0-64H309.333333a32 32 0 0 0 0 64h277.333334z"  horiz-adv-x="1024" />

    
    <glyph glyph-name="comment-o" unicode="&#59601;" d="M157.568 144.70399999999995c-11.008 18.688-18.218667 31.221333-21.802667 37.909333A424.885333 424.885333 0 0 0 85.333333 384C85.333333 619.637333 276.362667 810.666667 512 810.666667s426.666667-191.029333 426.666667-426.666667-191.029333-426.666667-426.666667-426.666667a424.778667 424.778667 0 0 0-219.125333 60.501334 2786.56 2786.56 0 0 1-20.053334 11.765333l-104.405333-28.48c-23.893333-6.506667-45.802667 15.413333-39.285333 39.296l28.437333 104.288z m65.301333-3.786667l-17.258666-63.306666 63.306666 17.258666a32 32 0 0 0 24.522667-3.210666 4515.84 4515.84 0 0 0 32.352-18.944A360.789333 360.789333 0 0 1 512 21.33333300000004c200.298667 0 362.666667 162.368 362.666667 362.666667S712.298667 746.666667 512 746.666667 149.333333 584.298667 149.333333 384c0-60.586667 14.848-118.954667 42.826667-171.136 3.712-6.912 12.928-22.826667 27.370667-47.232a32 32 0 0 0 3.338666-24.714667z m145.994667 70.773334a32 32 0 1 0 40.917333 49.205333A159.189333 159.189333 0 0 1 512 224c37.888 0 73.674667 13.173333 102.186667 36.885333a32 32 0 0 0 40.917333-49.216A223.178667 223.178667 0 0 0 512 160a223.178667 223.178667 0 0 0-143.136 51.690667z"  horiz-adv-x="1024" />

    
    <glyph glyph-name="vip" unicode="&#59602;" d="M267.210667 730.997333c32.106667 55.594667 102.976 74.88 158.901333 43.488L760.501333 617.493333H821.333333c64.8 0 117.333333-52.448 117.333334-117.12v-404.586666C938.666667 31.104000000000042 886.133333-21.33333300000004 821.333333-21.33333300000004H202.666667c-64.8 0-117.333333 52.437333-117.333334 117.12V500.373333c0 64.341333 51.989333 116.565333 116.330667 117.109334zM821.333333 553.6106669999999l-63.658666-0.021334a31.872 31.872 0 0 0-7.594667 0L202.666667 553.6c-29.450667 0-53.333333-23.829333-53.333334-53.226667v-404.586666a53.28 53.28 0 0 1 53.333334-53.237334h618.666666c29.450667 0 53.333333 23.829333 53.333334 53.226667V500.373333a53.28 53.28 0 0 1-53.333334 53.237334zM589.536 417.749333a32.021333 32.021333 0 0 0 42.368 15.861334 31.914667 31.914667 0 0 0 15.893333-42.293334l-106.666666-234.24c-11.370667-24.96-46.890667-24.96-58.261334 0l-106.666666 234.24a31.914667 31.914667 0 0 0 15.893333 42.293334 32.021333 32.021333 0 0 0 42.368-15.861334L512 247.49866699999995zM395.445333 718.432a53.28 53.28 0 0 1-72.810666-19.434667l-47.061334-81.504h334.613334l-212.341334 99.68a32.064 32.064 0 0 0-1.216 0.608z"  horiz-adv-x="1024" />

    
    <glyph glyph-name="daysign" unicode="&#59603;" d="M725.333333 725.333333h74.709334C864.853333 725.333333 917.333333 672.810667 917.333333 607.904V96.10666700000002C917.333333 31.242666999999983 864.832-21.33333300000004 800.042667-21.33333300000004H223.957333C159.146667-21.33333300000004 106.666667 31.189333000000033 106.666667 96.096V607.893333C106.666667 672.757333 159.168 725.333333 223.957333 725.333333H298.666667v32a32 32 0 0 0 64 0v-32h298.666666v32a32 32 0 0 0 64 0v-32z m0-64v-32a32 32 0 0 0-64 0v32H362.666667v-32a32 32 0 0 0-64 0v32h-74.709334A53.354667 53.354667 0 0 1 170.666667 607.904V96.10666700000002A53.301333 53.301333 0 0 1 223.957333 42.66666699999996h576.085334A53.354667 53.354667 0 0 1 853.333333 96.096V607.893333A53.301333 53.301333 0 0 1 800.042667 661.333333H725.333333z"  horiz-adv-x="1024" />

    
    <glyph glyph-name="lightning-o" unicode="&#59604;" d="M395.765333 309.42933300000004h-171.733333c-22.421333 0-37.888 22.442667-29.909333 43.381334L364.768 800.725333A32 32 0 0 0 394.666667 821.333333h287.957333c22.72 0 38.208-23.018667 29.632-44.064l-99.36-243.882666h187.050667c27.509333 0 42.186667-32.426667 24.042666-53.098667l-458.602666-522.56c-22.293333-25.408-63.626667-3.392-54.976 29.28l85.354666 322.421333zM416.714667 757.333333L270.453333 373.418667h166.869334a32 32 0 0 0 30.933333-40.181334l-61.130667-230.954666 322.176 367.114666H565.312c-22.72 0-38.208 23.018667-29.632 44.064l99.36 243.882667H416.714667z"  horiz-adv-x="1024" />

    
    <glyph glyph-name="filter" unicode="&#59605;" d="M646.037333 384.490667l224.874667 307.381333a74.741333 74.741333 0 0 1-16.074667 104.362667A74.485333 74.485333 0 0 1 810.773333 810.666667H213.226667C172.053333 810.666667 138.666667 777.237333 138.666667 736c0-15.872 5.045333-31.328 14.410666-44.128l224.885334-307.381333V-10.666666999999961c0-17.674667 14.304-32 31.957333-32a31.978667 31.978667 0 0 1 31.946667 32V394.965333c0 6.794667-2.165333 13.418667-6.176 18.912L204.629333 729.696A10.677333 10.677333 0 0 0 213.226667 746.666667h597.546666a10.666667 10.666667 0 0 0 8.586667-16.970667L588.298667 413.877333a32.032 32.032 0 0 1-6.176-18.912v-315.413333c0-17.674667 14.304-32 31.957333-32a31.978667 31.978667 0 0 1 31.957333 32V384.490667z"  horiz-adv-x="1024" />

    
    <glyph glyph-name="setup" unicode="&#59606;" d="M944.48 343.541333l-182.357333-330.666666a73.792 73.792 0 0 0-64.565334-38.325334h-362.133333a73.792 73.792 0 0 0-64.565333 38.325334l-182.357334 330.666666a75.338667 75.338667 0 0 0 0 72.682667l182.357334 330.666667a73.792 73.792 0 0 0 64.565333 38.325333h362.133333a73.792 73.792 0 0 0 64.565334-38.325333l182.357333-330.666667a75.338667 75.338667 0 0 0 0-72.682667z m-55.989333 31.146667a10.773333 10.773333 0 0 1 0 10.378667l-182.037334 330.666666a10.517333 10.517333 0 0 1-9.205333 5.482667H335.733333a10.517333 10.517333 0 0 1-9.205333-5.482667l-182.037333-330.666666a10.773333 10.773333 0 0 1 0-10.378667l182.037333-330.666667a10.517333 10.517333 0 0 1 9.205333-5.472h361.514667a10.517333 10.517333 0 0 1 9.205333 5.472l182.037334 330.666667zM513.738667 213.33333300000004c-94.261333 0-170.666667 76.405333-170.666667 170.666667s76.405333 170.666667 170.666667 170.666667c94.250667 0 170.666667-76.405333 170.666666-170.666667s-76.416-170.666667-170.666666-170.666667z m0 64c58.912 0 106.666667 47.754667 106.666666 106.666667s-47.754667 106.666667-106.666666 106.666667-106.666667-47.754667-106.666667-106.666667 47.754667-106.666667 106.666667-106.666667z"  horiz-adv-x="1024" />

    
    <glyph glyph-name="download" unicode="&#59607;" d="M565.333333 116.08533299999999l51.445334 54.912a31.733333 31.733333 0 0 0 45.226666 1.226667 32.64 32.64 0 0 0 1.216-45.770667l-97.418666-104a37.034667 37.034667 0 0 0-52.821334-1.397333l-108.362666 104.202667a32.64 32.64 0 0 0-1.152 45.770666 31.733333 31.733333 0 0 0 45.248 1.173334L501.333333 121.578667V383.925333c0 17.877333 14.325333 32.373333 32 32.373334s32-14.506667 32-32.373334v-267.84zM512 757.333333c123.018667 0 228.213333-86.709333 259.424-206.88C864.298667 548.853333 938.666667 469.909333 938.666667 373.312c0-97.6-75.914667-177.173333-170.133334-177.173333-17.674667 0-32 14.496-32 32.373333 0 17.877333 14.325333 32.373333 32 32.373333 58.357333 0 106.133333 50.08 106.133334 112.426667 0 62.336-47.776 112.416-106.133334 112.416-5.856 0-11.626667-0.501333-17.301333-1.482667-17.621333-3.050667-34.304 9.098667-37.024 26.986667C698.346667 615.3066670000001 612.714667 692.576 512 692.576c-73.834667 0-140.928-41.536-177.376-107.861333a31.914667 31.914667 0 0 0-30.122667-16.576 140.373333 140.373333 0 0 1-9.568 0.32c-80.149333 0-145.6-68.586667-145.6-153.781334 0-85.184 65.450667-153.792 145.6-153.792 17.674667 0 32-14.496 32-32.373333 0-17.877333-14.325333-32.373333-32-32.373333C178.912 196.13866700000005 85.333333 294.229333 85.333333 414.677333c0 118.314667 90.293333 215.061333 203.456 218.453334C338.090667 709.76 421.013333 757.333333 512 757.333333z"  horiz-adv-x="1024" />

    
    <glyph glyph-name="community-o" unicode="&#59608;" d="M512-42.66666699999996C276.362667-42.66666699999996 85.333333 148.362667 85.333333 384S276.362667 810.666667 512 810.666667s426.666667-191.029333 426.666667-426.666667-191.029333-426.666667-426.666667-426.666667z m0 64c200.298667 0 362.666667 162.368 362.666667 362.666667S712.298667 746.666667 512 746.666667 149.333333 584.298667 149.333333 384s162.368-362.666667 362.666667-362.666667zM368.864 211.69066699999996a32 32 0 1 0 40.917333 49.205333A159.189333 159.189333 0 0 1 512 224c37.888 0 73.674667 13.173333 102.186667 36.885333a32 32 0 0 0 40.917333-49.216A223.178667 223.178667 0 0 0 512 160a223.178667 223.178667 0 0 0-143.136 51.690667z"  horiz-adv-x="1024" />

    
    <glyph glyph-name="soundoff" unicode="&#59609;" d="M257.493333 573.6l215.573334 133.056c24.981333 15.413333 57.877333 7.914667 73.493333-16.746667 5.301333-8.373333 8.106667-18.048 8.106667-27.914666v-555.989334C554.666667 76.90666699999997 530.784 53.33333300000004 501.333333 53.33333300000004c-9.994667 0-19.786667 2.773333-28.266666 8L257.493333 194.39999999999998H160c-41.237333 0-74.666667 33.013333-74.666667 73.738667V499.861333c0 40.725333 33.429333 73.738667 74.666667 73.738667h97.493333z m26.133334-58.4a32.298667 32.298667 0 0 0-16.96-4.8H160c-5.888 0-10.666667-4.714667-10.666667-10.538667v-231.733333c0-5.813333 4.778667-10.538667 10.666667-10.538667h106.666667c5.994667 0 11.872-1.664 16.96-4.8L490.666667 125.01333299999999V642.986667L283.626667 515.2zM832.565333 377.6l86.474667-86.474667a30.570667 30.570667 0 1 0-43.232-43.242666L789.333333 334.346667l-86.474666-86.474667a30.570667 30.570667 0 1 0-43.232 43.242667l86.474666 86.474666-86.474666 86.474667a30.570667 30.570667 0 1 0 43.232 43.232L789.333333 420.821333l86.474667 86.474667a30.570667 30.570667 0 1 0 43.232-43.232l-86.474667-86.474667z"  horiz-adv-x="1024" />

    
    <glyph glyph-name="fail-o" unicode="&#59610;" d="M878.08 164.72533299999998a32 32 0 0 0-54.88 32.938667A360.789333 360.789333 0 0 1 874.666667 384c0 200.298667-162.368 362.666667-362.666667 362.666667S149.333333 584.298667 149.333333 384s162.368-362.666667 362.666667-362.666667a360.789333 360.789333 0 0 1 186.314667 51.445334 32 32 0 0 0 32.928-54.88A424.778667 424.778667 0 0 0 512-42.66666699999996C276.362667-42.66666699999996 85.333333 148.362667 85.333333 384S276.362667 810.666667 512 810.666667s426.666667-191.029333 426.666667-426.666667c0-78.293333-21.152-153.568-60.586667-219.274667zM555.232 384l86.474667-86.474667a30.570667 30.570667 0 1 0-43.232-43.232L512 340.76800000000003l-86.474667-86.474667a30.570667 30.570667 0 1 0-43.232 43.232L468.768 384l-86.474667 86.474667a30.570667 30.570667 0 1 0 43.232 43.232L512 427.232l86.474667 86.474667a30.570667 30.570667 0 1 0 43.232-43.232L555.232 384z"  horiz-adv-x="1024" />

    
    <glyph glyph-name="time-o" unicode="&#59611;" d="M878.08 164.72533299999998a32 32 0 0 0-54.88 32.938667A360.789333 360.789333 0 0 1 874.666667 384c0 200.298667-162.368 362.666667-362.666667 362.666667S149.333333 584.298667 149.333333 384s162.368-362.666667 362.666667-362.666667a360.789333 360.789333 0 0 1 186.314667 51.445334 32 32 0 0 0 32.928-54.88A424.778667 424.778667 0 0 0 512-42.66666699999996C276.362667-42.66666699999996 85.333333 148.362667 85.333333 384S276.362667 810.666667 512 810.666667s426.666667-191.029333 426.666667-426.666667c0-78.293333-21.152-153.568-60.586667-219.274667z m-548.704 81.898667L480 397.258667V576a32 32 0 0 0 64 0v-192a32 32 0 0 0-9.376-22.624l-160-160a32 32 0 1 0-45.248 45.248z"  horiz-adv-x="1024" />

    
    <glyph glyph-name="sound" unicode="&#59612;" d="M257.493333 573.6l215.573334 133.056c24.981333 15.413333 57.877333 7.914667 73.493333-16.746667 5.301333-8.373333 8.106667-18.048 8.106667-27.914666v-555.989334C554.666667 76.90666699999997 530.784 53.33333300000004 501.333333 53.33333300000004c-9.994667 0-19.786667 2.773333-28.266666 8L257.493333 194.39999999999998H160c-41.237333 0-74.666667 33.013333-74.666667 73.738667V499.861333c0 40.725333 33.429333 73.738667 74.666667 73.738667h97.493333z m26.133334-58.4a32.298667 32.298667 0 0 0-16.96-4.8H160c-5.888 0-10.666667-4.714667-10.666667-10.538667v-231.733333c0-5.813333 4.778667-10.538667 10.666667-10.538667h106.666667c5.994667 0 11.872-1.664 16.96-4.8L490.666667 125.01333299999999V642.986667L283.626667 515.2zM800.906667 66.34666700000002a32.288 32.288 0 0 0-45.248 0.757333 31.317333 31.317333 0 0 0 0.768 44.693333c157.653333 150.464 157.653333 393.962667 0 544.426667a31.317333 31.317333 0 0 0-0.768 44.682667 32.288 32.288 0 0 0 45.248 0.757333c183.68-175.306667 183.68-460.010667 0-635.317333z m-106.901334 126.186666a32.288 32.288 0 0 0-45.248 1.216 31.328 31.328 0 0 0 1.237334 44.672c86.229333 80.608 86.229333 210.56 0 291.178667a31.328 31.328 0 0 0-1.237334 44.672 32.288 32.288 0 0 0 45.248 1.216c112.885333-105.546667 112.885333-277.418667 0-382.965333z"  horiz-adv-x="1024" />

    
    <glyph glyph-name="collect-o" unicode="&#59613;" d="M335.008-20.629332999999974c-35.914667-22.314667-82.88-10.773333-104.693333 25.557333a77.333333 77.333333 0 0 0-8.96 57.429333l46.485333 198.24a13.141333 13.141333 0 0 1-4.021333 12.864l-152.16 132.586667c-31.605333 27.52-35.253333 75.648-8.234667 107.733333a75.68 75.68 0 0 0 51.733333 26.752L354.848 556.8c4.352 0.362667 8.245333 3.232 10.026667 7.594667l76.938666 188.170666c16.032 39.2 60.618667 57.92 99.52 41.461334a76.309333 76.309333 0 0 0 40.832-41.461334l76.938667-188.16c1.781333-4.373333 5.674667-7.253333 10.026667-7.605333l199.712-16.277333c41.877333-3.413333 72.885333-40.458667 69.568-82.517334a76.938667 76.938667 0 0 0-26.08-51.978666l-152.16-132.586667c-3.541333-3.082667-5.141333-8.074667-4.021334-12.853333l46.485334-198.24c9.621333-41.013333-15.36-82.336-56.138667-92.224a75.285333 75.285333 0 0 0-57.525333 9.237333l-170.976 106.24a11.296 11.296 0 0 1-12.010667 0l-170.986667-106.24zM551.786667 139.96799999999996l170.976-106.24c2.624-1.621333 5.717333-2.122667 8.650666-1.408 6.410667 1.557333 10.56 8.426667 8.928 15.424l-46.485333 198.24a77.141333 77.141333 0 0 0 24.277333 75.733333L870.293333 454.293333c2.485333 2.165333 4.053333 5.312 4.330667 8.746667 0.565333 7.136-4.490667 13.173333-10.976 13.696l-199.712 16.288a75.989333 75.989333 0 0 0-64.064 47.168l-76.938667 188.16a12.309333 12.309333 0 0 1-6.538666 6.741333c-5.898667 2.496-12.725333-0.373333-15.328-6.741333l-76.949334-188.16a75.989333 75.989333 0 0 0-64.064-47.168l-199.701333-16.288a11.68 11.68 0 0 1-7.978667-4.181333 13.226667 13.226667 0 0 1 1.333334-18.261334l152.16-132.586666a77.141333 77.141333 0 0 0 24.277333-75.733334l-46.485333-198.229333a13.333333 13.333333 0 0 1 1.514666-9.877333c3.488-5.792 10.581333-7.530667 16.064-4.128l170.986667 106.229333a75.296 75.296 0 0 0 79.562667 0z"  horiz-adv-x="1024" />

    
    <glyph glyph-name="cellphone-o" unicode="&#59614;" d="M256 810.666667h512c64.8 0 117.333333-52.533333 117.333333-117.333334v-618.666666c0-64.8-52.533333-117.333333-117.333333-117.333334H256c-64.8 0-117.333333 52.533333-117.333333 117.333334V693.333333c0 64.8 52.533333 117.333333 117.333333 117.333334z m0-64a53.333333 53.333333 0 0 1-53.333333-53.333334v-618.666666a53.333333 53.333333 0 0 1 53.333333-53.333334h512a53.333333 53.333333 0 0 1 53.333333 53.333334V693.333333a53.333333 53.333333 0 0 1-53.333333 53.333334H256z m170.666667-618.666667a32 32 0 0 0 0 64h170.666666a32 32 0 0 0 0-64H426.666667z"  horiz-adv-x="1024" />

    
    <glyph glyph-name="home-o" unicode="&#59615;" d="M155.584 553.44l312.874667 224.565333a74.666667 74.666667 0 0 0 87.082666 0l312.874667-224.565333A117.333333 117.333333 0 0 0 917.333333 458.133333V96c0-64.8-52.533333-117.333333-117.333333-117.333333H224c-64.8 0-117.333333 52.533333-117.333333 117.333333V458.122667a117.333333 117.333333 0 0 0 48.917333 95.317333z m37.322667-51.989333A53.333333 53.333333 0 0 1 170.666667 458.122667V96a53.333333 53.333333 0 0 1 53.333333-53.333333h576a53.333333 53.333333 0 0 1 53.333333 53.333333V458.122667a53.333333 53.333333 0 0 1-22.24 43.328L518.218667 726.016a10.666667 10.666667 0 0 1-12.437334 0L192.906667 501.44z"  horiz-adv-x="1024" />

    
    <glyph glyph-name="data-o" unicode="&#59616;" d="M512-42.66666699999996C276.362667-42.66666699999996 85.333333 148.362667 85.333333 384S276.362667 810.666667 512 810.666667s426.666667-191.029333 426.666667-426.666667-191.029333-426.666667-426.666667-426.666667z m0 64c200.298667 0 362.666667 162.368 362.666667 362.666667S712.298667 746.666667 512 746.666667 149.333333 584.298667 149.333333 384s162.368-362.666667 362.666667-362.666667z m8.213333 265.674667l-81.429333 88.704-95.754667-99.264a32 32 0 1 0-46.058666 44.437333l119.36 123.733334a32 32 0 0 0 46.613333-0.576l81.792-89.109334 136.608 136.992a32 32 0 1 0 45.312-45.184l-160.213333-160.682666a32 32 0 0 0-46.24 0.96z"  horiz-adv-x="1024" />

    
    <glyph glyph-name="refresh" unicode="&#59617;" d="M822.496 422.848a32 32 0 0 1-31.392-55.776l97.450667-54.848c20.32-11.434667 45.653333 2.005333 47.594666 25.248 1.674667 20.16 2.517333 35.573333 2.517334 46.528C938.666667 619.637333 747.637333 810.666667 512 810.666667S85.333333 619.637333 85.333333 384s191.029333-426.666667 426.666667-426.666667c144.106667 0 276.053333 72.032 354.752 189.536a32 32 0 1 1-53.173333 35.616C746.645333 82.53866700000003 634.538667 21.33333300000004 512 21.33333300000004c-200.298667 0-362.666667 162.368-362.666667 362.666667s162.368 362.666667 362.666667 362.666667c197.098667 0 357.472-157.226667 362.538667-353.109334l-52.042667 29.290667z"  horiz-adv-x="1024" />

    
    <glyph glyph-name="search" unicode="&#59618;" d="M797.525333 143.73333300000002c62.069333 72.736 97.28 165.002667 97.28 262.186667C894.816 629.472 713.621333 810.666667 490.08 810.666667 266.538667 810.666667 85.333333 629.461333 85.333333 405.930667 85.333333 182.38933299999997 266.538667 1.1733329999999569 490.069333 1.1733329999999569a404.693333 404.693333 0 0 1 118.208 17.546667 32 32 0 0 1-18.666666 61.216 340.693333 340.693333 0 0 0-99.541334-14.762667C301.888 65.18399999999997 149.333333 217.73866699999996 149.333333 405.930667 149.333333 594.1120000000001 301.888 746.666667 490.069333 746.666667 678.261333 746.666667 830.826667 594.1120000000001 830.826667 405.930667c0-89.28-35.381333-173.696-97.141334-237.322667a36.992 36.992 0 0 1 0.384-51.925333l149.973334-149.973334a32 32 0 0 1 45.258666 45.248L797.525333 143.73333300000002z"  horiz-adv-x="1024" />

    
    <glyph glyph-name="exclamation-o" unicode="&#59619;" d="M512 810.666667c235.637333 0 426.666667-191.029333 426.666667-426.666667 0-78.293333-21.152-153.568-60.586667-219.274667a32 32 0 0 0-54.88 32.938667A360.789333 360.789333 0 0 1 874.666667 384c0 200.298667-162.368 362.666667-362.666667 362.666667S149.333333 584.298667 149.333333 384s162.368-362.666667 362.666667-362.666667a360.789333 360.789333 0 0 1 186.314667 51.445334 32 32 0 0 0 32.928-54.88A424.778667 424.778667 0 0 0 512-42.66666699999996C276.362667-42.66666699999996 85.333333 148.362667 85.333333 384S276.362667 810.666667 512 810.666667z m0-565.333334a42.666667 42.666667 0 1 0 0-85.333333 42.666667 42.666667 0 0 0 0 85.333333z m0 362.666667a42.666667 42.666667 0 0 0 42.666667-42.666667v-234.666666a42.666667 42.666667 0 1 0-85.333334 0V565.333333a42.666667 42.666667 0 0 0 42.666667 42.666667z"  horiz-adv-x="1024" />

    
    <glyph glyph-name="addcoupon" unicode="&#59620;" d="M821.333333 757.333333c64.8 0 117.333333-52.533333 117.333334-117.333333v-149.333333a32 32 0 0 0-32-32 74.666667 74.666667 0 0 1 0-149.333334 32 32 0 0 0 32-32v-149.333333c0-64.8-52.533333-117.333333-117.333334-117.333333H202.666667c-64.8 0-117.333333 52.533333-117.333334 117.333333V277.33333300000004a32 32 0 0 0 32 32 74.666667 74.666667 0 0 1 0 149.333334 32 32 0 0 0-32 32V640c0 64.8 52.533333 117.333333 117.333334 117.333333h618.666666z m0-64H202.666667a53.333333 53.333333 0 0 1-53.333334-53.333333v-121.045333C210.485333 504.512 256 449.568 256 384c0-65.568-45.514667-120.512-106.666667-134.954667V128a53.333333 53.333333 0 0 1 53.333334-53.333333h618.666666a53.333333 53.333333 0 0 1 53.333334 53.333333V249.04533300000003C813.514667 263.48800000000006 768 318.432 768 384c0 65.568 45.514667 120.512 106.666667 134.954667V640a53.333333 53.333333 0 0 1-53.333334 53.333333zM512 517.333333a32 32 0 0 0 32-32l-0.010667-74.666666H618.666667a32 32 0 0 0 31.946666-30.122667L650.666667 378.66666699999996a32 32 0 0 0-32-32h-74.666667v-74.666667a32 32 0 0 0-30.122667-31.946667L512 240a32 32 0 0 0-32 32v74.666667h-74.666667a32 32 0 0 0-31.946666 30.122666L373.333333 378.66666699999996a32 32 0 0 0 32 32h74.656l0.010667 74.666666a32 32 0 0 0 30.122667 31.946667z"  horiz-adv-x="1024" />

    
    <glyph glyph-name="tips" unicode="&#59621;" d="M544 106.66666699999996h105.173333a10.666667 10.666667 0 0 1 10.666667 10.666666v0.362667l-3.232 94.304a32 32 0 0 0 14.293333 27.765333C750.933333 292.81066699999997 800 382.20799999999997 800 480c0 159.061333-128.938667 288-288 288S224 639.061333 224 480c0-97.813333 49.098667-187.232 129.141333-240.266667a32 32 0 0 0 14.314667-25.578666l3.338667-97.184a10.666667 10.666667 0 0 1 10.666666-10.304H480V323.30666699999995l-76.64 81.429333a32 32 0 0 0 46.613333 43.861333l63.36-67.328 72.693334 68.661334a32 32 0 0 0 43.946666-46.528L544 322.20799999999997V106.66666699999996z m320 373.333333a351.530667 351.530667 0 0 0-142.826667-283.146667l2.634667-76.96A74.666667 74.666667 0 0 0 649.173333 42.66666699999996h-267.733333a74.666667 74.666667 0 0 0-74.624 72.106666l-2.784 81.194667A351.541333 351.541333 0 0 0 160 480C160 674.4 317.6 832 512 832s352-157.6 352-352zM416-64a32 32 0 0 0 0 64h192a32 32 0 0 0 0-64H416z"  horiz-adv-x="1024" />

    
    <glyph glyph-name="image" unicode="&#59622;" d="M938.666667 342.08000000000004V128c0-64.8-52.533333-117.333333-117.333334-117.333333H202.666667c-64.8 0-117.333333 52.533333-117.333334 117.333333V640c0 64.8 52.533333 117.333333 117.333334 117.333333h618.666666c64.8 0 117.333333-52.533333 117.333334-117.333333v-297.92z m-64 74.624V640a53.333333 53.333333 0 0 1-53.333334 53.333333H202.666667a53.333333 53.333333 0 0 1-53.333334-53.333333v-344.48A290.090667 290.090667 0 0 0 192 298.66666699999996a286.88 286.88 0 0 0 183.296-65.845334C427.029333 367.616 556.906667 458.666667 704 458.666667c65.706667 0 126.997333-16.778667 170.666667-41.962667z m0-82.24c-5.333333 8.32-21.130667 21.653333-43.648 32.917333C796.768 384.512 753.045333 394.666667 704 394.666667c-121.770667 0-229.130667-76.266667-270.432-188.693334-2.730667-7.445333-7.402667-20.32-13.994667-38.581333-7.68-21.301333-34.453333-28.106667-51.370666-13.056-16.437333 14.634667-28.554667 25.066667-36.138667 31.146667A222.890667 222.890667 0 0 1 192 234.66666699999996c-14.464 0-28.725333-1.365333-42.666667-4.053334V128a53.333333 53.333333 0 0 1 53.333334-53.333333h618.666666a53.333333 53.333333 0 0 1 53.333334 53.333333V334.47466699999995zM320 416a96 96 0 1 0 0 192 96 96 0 0 0 0-192z m0 64a32 32 0 1 1 0 64 32 32 0 0 1 0-64z"  horiz-adv-x="1024" />

    
    <glyph glyph-name="money" unicode="&#59623;" d="M485.333333 330.66666699999996v42.666666H405.333333a32 32 0 1 0 0 64h47.232l-71.818666 86.186667a32 32 0 1 0 49.173333 40.96L512 465.994667l82.08 98.506666a32 32 0 1 0 49.173333-40.981333L571.434667 437.333333H618.666667a32 32 0 1 0 0-64h-69.333334v-42.666666H618.666667a32 32 0 1 0 0-64h-69.333334v-42.666667a32 32 0 0 0-64 0v42.666667H405.333333a32 32 0 1 0 0 64h80z m337.162667 92.181333l52.053333-29.290667C869.461333 589.44 709.098667 746.666667 512 746.666667c-200.298667 0-362.666667-162.368-362.666667-362.666667s162.368-362.666667 362.666667-362.666667c122.538667 0 234.645333 61.194667 301.578667 161.152a32 32 0 1 0 53.173333-35.616C788.064 29.365332999999964 656.117333-42.66666699999996 512-42.66666699999996 276.362667-42.66666699999996 85.333333 148.362667 85.333333 384S276.362667 810.666667 512 810.666667s426.666667-191.029333 426.666667-426.666667c0-10.954667-0.853333-26.357333-2.517334-46.528-1.930667-23.242667-27.274667-36.682667-47.594666-25.248l-97.450667 54.848a32 32 0 1 0 31.392 55.786667z"  horiz-adv-x="1024" />

    
    <glyph glyph-name="circle" unicode="&#59624;" d="M512-42.66666699999996C276.362667-42.66666699999996 85.333333 148.362667 85.333333 384S276.362667 810.666667 512 810.666667s426.666667-191.029333 426.666667-426.666667-191.029333-426.666667-426.666667-426.666667z m0 64c200.298667 0 362.666667 162.368 362.666667 362.666667S712.298667 746.666667 512 746.666667 149.333333 584.298667 149.333333 384s162.368-362.666667 362.666667-362.666667z"  horiz-adv-x="1024" />

    
    <glyph glyph-name="questionnaire" unicode="&#59625;" d="M895.946667 161.952l1.066666-1.013333a29.824 29.824 0 0 0 0-43.413334l-162.261333-152.96a31.925333 31.925333 0 0 0-22.762667-8.704 31.925333 31.925333 0 0 0-22.773333 8.704l-93.184 87.84a29.824 29.824 0 0 0 0 43.413334l1.077333 1.013333a32 32 0 0 0 43.904 0l70.976-66.901333 140.053334 132.021333a32 32 0 0 0 43.904 0zM768 810.666667c64.8 0 117.333333-52.533333 117.333333-117.333334v-394.666666a32 32 0 0 0-64 0V693.333333a53.333333 53.333333 0 0 1-53.333333 53.333334H256a53.333333 53.333333 0 0 1-53.333333-53.333334v-618.666666a53.333333 53.333333 0 0 1 53.333333-53.333334h234.666667a32 32 0 0 0 0-64H256c-64.8 0-117.333333 52.533333-117.333333 117.333334V693.333333c0 64.8 52.533333 117.333333 117.333333 117.333334zM554.666667 352a32 32 0 0 0 0-64H341.333333a32 32 0 0 0 0 64z m128 170.666667a32 32 0 0 0 0-64H341.333333a32 32 0 0 0 0 64z"  horiz-adv-x="1024" />

    
    <glyph glyph-name="hashtag" unicode="&#59569;" d="M651.424 678.933333a32 32 0 0 0 62.485333-13.866666L682.261333 522.666667H800a32 32 0 0 0 31.946667-30.122667L832 490.666667a32 32 0 0 0-32-32H668.032l-33.184-149.333334H800a32 32 0 0 0 31.946667-30.122666L832 277.33333300000004a32 32 0 0 0-32-32H620.629333l-34.72-156.266666a32 32 0 0 0-36.341333-24.661334l-1.845333 0.352a32 32 0 0 0-24.298667 38.186667L555.061333 245.33333300000004H407.296l-34.72-156.288a32 32 0 0 0-36.341333-24.64l-1.845334 0.341334a32 32 0 0 0-24.298666 38.186666L341.728 245.33333300000004 224 245.33333300000004a32 32 0 0 0-31.946667 30.122667L192 277.33333300000004a32 32 0 0 0 32 32h131.957333l33.184 149.333334H224a32 32 0 0 0-31.946667 30.122666L192 490.666667a32 32 0 0 0 32 32h179.36l34.730667 156.266666a32 32 0 0 0 36.341333 24.661334l1.845333-0.352a32 32 0 0 0 24.298667-38.186667l-31.648-142.378667h147.765333zM602.474667 458.666667H454.698667l-33.184-149.333334h147.776l33.184 149.333334z"  horiz-adv-x="1024" />

    
    <glyph glyph-name="menu" unicode="&#58928;" d="M332.3904 82.5344h545.1776c17.8176 0 31.3344 13.312 31.3344 31.3344s-13.312 31.3344-31.3344 31.3344H332.3904c-17.8176 0-31.3344-13.312-31.3344-31.3344 0-13.312 13.5168-31.3344 31.3344-31.3344z m0 268.288h545.1776c22.3232 0 35.84 13.312 35.84 31.3344s-13.312 31.3344-31.3344 31.3344H332.3904c-17.8176 4.5056-31.3344-9.0112-31.3344-31.3344 0-18.0224 13.5168-31.3344 31.3344-31.3344z m0 263.5776h545.1776c22.3232 0 35.84 17.8176 35.84 35.84 0 17.8176-13.312 31.3344-31.3344 31.3344H332.3904c-17.8176 0-31.3344-13.312-31.3344-31.3344 0-17.8176 13.5168-35.84 31.3344-35.84zM158.1056 69.2224c26.8288 0 49.152 22.3232 49.152 49.152s-22.3232 49.152-49.152 49.152-49.152-22.3232-49.152-49.152 22.3232-49.152 49.152-49.152z m49.152 312.9344c0 26.8288-22.3232 49.152-49.152 49.152-26.8288 4.5056-49.152-17.8176-49.152-49.152 0-26.8288 22.3232-49.152 49.152-49.152s49.152 22.3232 49.152 49.152zM158.1056 601.088c26.8288 0 49.152 22.3232 49.152 49.152s-22.3232 49.152-49.152 49.152-49.152-22.3232-49.152-49.152 22.3232-49.152 49.152-49.152z m0 0"  horiz-adv-x="1024" />

    
    <glyph glyph-name="plus" unicode="&#58980;" d="M876.08888853 418.13333333H546.13333333V748.08888853c0 18.2044448-15.92888853 34.13333333-34.13333333 34.13333334s-34.13333333-15.92888853-34.13333333-34.13333334v-329.9555552H147.91111147c-18.2044448 0-34.13333333-15.92888853-34.13333334-34.13333333s15.92888853-34.13333333 34.13333334-34.13333333h329.9555552V19.911111470000037c0-18.2044448 15.92888853-34.13333333 34.13333333-34.13333334s34.13333333 15.92888853 34.13333333 34.13333334V349.86666667H876.08888853c18.2044448 0 34.13333333 15.92888853 34.13333334 34.13333333s-15.92888853 34.13333333-34.13333334 34.13333333z"  horiz-adv-x="1024" />

    
    <glyph glyph-name="arrow-down" unicode="&#58981;" d="M512 167.82222187000002c-9.10222187 0-18.2044448 2.2755552-25.03111147 9.10222293l-364.08888853 364.08888853c-13.65333333 13.65333333-13.65333333 34.13333333 0 47.78666667 13.65333333 13.65333333 34.13333333 13.65333333 47.78666667 0l341.33333333-339.05777813 339.05777813 341.33333333c13.65333333 13.65333333 34.13333333 13.65333333 47.78666667 0 13.65333333-13.65333333 13.65333333-34.13333333 0-47.78666667L534.7555552 179.20000000000005c-4.55111147-9.10222187-13.65333333-11.37777813-22.7555552-11.37777813z"  horiz-adv-x="1024" />

    
    <glyph glyph-name="arrow-left" unicode="&#58982;" d="M716.8 782.22222187c9.10222187 0 18.2044448-4.55111146 25.03111147-11.37777707 13.65333333-13.65333333 11.37777813-36.40888853-2.27555627-47.78666667L359.53777813 384 739.5555552 44.942221870000026c13.65333333-11.37777813 15.92888853-34.13333333 2.27555627-47.78666667-11.37777813-13.65333333-34.13333333-15.92888853-47.78666667-2.2755552l-409.6 364.08888853c-6.82666667 6.82666667-11.37777813 15.92888854-11.37777813 25.03111147 0 9.10222187 4.55111146 18.2044448 11.37777813 25.03111147l409.6 364.08888853c6.82666667 6.82666667 13.65333333 9.10222187 22.7555552 9.10222187z"  horiz-adv-x="1024" />

    
    <glyph glyph-name="close" unicode="&#58984;" d="M559.78666667 384L853.33333333 677.54666667c13.65333333 13.65333333 13.65333333 34.13333333 0 47.78666666-13.65333333 13.65333333-34.13333333 13.65333333-47.78666666 0L512 431.78666667l-293.54666667 295.82222186c-13.65333333 13.65333333-34.13333333 13.65333333-47.78666666 0-13.65333333-13.65333333-13.65333333-34.13333333 0-47.78666666l293.54666666-295.82222187-295.82222186-293.54666667c-13.65333333-13.65333333-13.65333333-34.13333333 0-47.78666666 6.82666667-6.82666667 15.92888853-9.10222187 25.0311104-9.10222187s18.2044448 2.2755552 25.03111146 9.10222187L512 336.21333332999995 805.54666667 42.66666667000004c6.82666667-6.82666667 15.92888853-9.10222187 25.03111146-9.10222187s18.2044448 2.2755552 25.0311104 9.10222187c13.65333333 13.65333333 13.65333333 34.13333333 0 47.78666666L559.78666667 384z"  horiz-adv-x="1024" />

    
    <glyph glyph-name="minus" unicode="&#59002;" d="M876.08888853 349.86666667H147.91111147c-18.2044448 0-34.13333333 15.92888853-34.13333334 34.13333333s15.92888853 34.13333333 34.13333334 34.13333333h728.17777706c18.2044448 0 34.13333333-15.92888853 34.13333334-34.13333333s-15.92888853-34.13333333-34.13333334-34.13333333z"  horiz-adv-x="1024" />

    
    <glyph glyph-name="select" unicode="&#59006;" d="M402.77333333 122.31111147000001c-9.10222187 0-18.2044448 2.2755552-25.03111146 9.10222186l-254.86222187 250.31111147c-13.65333333 13.65333333-13.65333333 34.13333333 0 47.78666667 13.65333333 13.65333333 34.13333333 13.65333333 47.78666667 0l229.83111146-227.55555627 450.56 457.38666667c13.65333333 13.65333333 34.13333333 13.65333333 47.78666667 0 13.65333333-13.65333333 13.65333333-34.13333333 0-47.78666667L425.52888853 133.68888852999999c-4.55111147-9.10222187-13.65333333-11.37777813-22.7555552-11.37777706z"  horiz-adv-x="1024" />

    
    <glyph glyph-name="arrow-right" unicode="&#59590;" d="M307.2-14.222221869999998c-9.10222187 0-18.2044448 4.55111146-25.03111147 11.37777707-13.65333333 13.65333333-11.37777813 36.40888853 2.27555627 47.78666667L664.46222187 384 284.4444448 723.05777813c-13.65333333 11.37777813-15.92888853 34.13333333-2.27555627 47.78666667 11.37777813 13.65333333 34.13333333 15.92888853 47.78666667 2.2755552l409.6-364.08888853c6.82666667-6.82666667 11.37777813-15.92888854 11.37777813-25.03111147 0-9.10222187-4.55111146-18.2044448-11.37777813-25.03111147l-409.6-364.08888853c-6.82666667-6.82666667-13.65333333-9.10222187-22.7555552-9.10222187z"  horiz-adv-x="1024" />

    
    <glyph glyph-name="arrow-up" unicode="&#59589;" d="M512 600.17777813c9.10222187 0 18.2044448-2.27555519 25.03111147-9.10222293l364.08888853-364.08888853c13.65333333-13.65333333 13.65333333-34.13333333 1e-8-47.78666667-13.65333333-13.65333333-34.13333333-13.65333333-47.78666668 0l-341.33333333 339.05777813-339.05777813-341.33333333c-13.65333333-13.65333333-34.13333333-13.65333333-47.78666667 0-13.65333333 13.65333333-13.65333333 34.13333333 0 47.78666667L489.2444448 588.8c4.55111146 9.10222187 13.65333333 11.37777813 22.7555552 11.37777813z"  horiz-adv-x="1024" />

    
    <glyph glyph-name="love-o" unicode="&#59563;" d="M667.786667 778.666667C832.864 778.666667 938.666667 646.293333 938.666667 468.138667c0-138.250667-125.098667-290.506667-371.573334-461.589334a96.768 96.768 0 0 0-110.186666 0C210.432 177.63199999999995 85.333333 329.88800000000003 85.333333 468.138667 85.333333 646.293333 191.136 778.666667 356.213333 778.666667c59.616 0 100.053333-20.832 155.786667-68.096C567.744 757.8240000000001 608.170667 778.666667 667.786667 778.666667z m0-63.146667c-41.44 0-70.261333-15.189333-116.96-55.04-2.165333-1.845333-14.4-12.373333-17.941334-15.381333a32.32 32.32 0 0 0-41.770666 0c-3.541333 3.018667-15.776 13.536-17.941334 15.381333-46.698667 39.850667-75.52 55.04-116.96 55.04C230.186667 715.52 149.333333 614.7413329999999 149.333333 469.301333 149.333333 358.4 262.858667 220.75733300000002 493.632 61.17333299999996a32.352 32.352 0 0 1 36.736 0C761.141333 220.746667 874.666667 358.4 874.666667 469.301333c0 145.44-80.853333 246.218667-206.88 246.218667z"  horiz-adv-x="1024" />

    
    <glyph glyph-name="success-o" unicode="&#59565;" d="M878.08 164.72533299999998a32 32 0 0 0-54.88 32.938667A360.789333 360.789333 0 0 1 874.666667 384c0 200.298667-162.368 362.666667-362.666667 362.666667S149.333333 584.298667 149.333333 384s162.368-362.666667 362.666667-362.666667a360.789333 360.789333 0 0 1 186.314667 51.445334 32 32 0 0 0 32.928-54.88A424.778667 424.778667 0 0 0 512-42.66666699999996C276.362667-42.66666699999996 85.333333 148.362667 85.333333 384S276.362667 810.666667 512 810.666667s426.666667-191.029333 426.666667-426.666667c0-78.293333-21.152-153.568-60.586667-219.274667zM374.581333 406.549333l84.341334-83.989333 190.432 190.72a32 32 0 0 0 45.290666-45.226667l-213.013333-213.333333a32 32 0 0 0-45.226667-0.064l-106.986666 106.549333a32 32 0 1 0 45.162666 45.344z"  horiz-adv-x="1024" />

    
    <glyph glyph-name="more" unicode="&#59567;" d="M298.666667 309.33333300000004a74.666667 74.666667 0 1 0 0 149.333334 74.666667 74.666667 0 0 0 0-149.333334z m213.333333 0a74.666667 74.666667 0 1 0 0 149.333334 74.666667 74.666667 0 0 0 0-149.333334z m213.333333 0a74.666667 74.666667 0 1 0 0 149.333334 74.666667 74.666667 0 0 0 0-149.333334z"  horiz-adv-x="1024" />

    
    <glyph glyph-name="love" unicode="&#59587;" d="M667.786667 778.666667C832.864 778.666667 938.666667 646.293333 938.666667 468.138667c0-138.250667-125.098667-290.506667-371.573334-461.589334a96.768 96.768 0 0 0-110.186666 0C210.432 177.63199999999995 85.333333 329.88800000000003 85.333333 468.138667 85.333333 646.293333 191.136 778.666667 356.213333 778.666667c59.616 0 100.053333-20.832 155.786667-68.096C567.744 757.8240000000001 608.170667 778.666667 667.786667 778.666667z"  horiz-adv-x="1024" />

    
    <glyph glyph-name="success" unicode="&#59588;" d="M512 810.666667c235.637333 0 426.666667-191.029333 426.666667-426.666667S747.637333-42.66666699999996 512-42.66666699999996 85.333333 148.362667 85.333333 384 276.362667 810.666667 512 810.666667z m182.613333-297.354667a32 32 0 0 1-45.258666-0.032L458.922667 322.55999999999995l-84.341334 83.989333a32 32 0 0 1-45.162666-45.344l106.986666-106.549333a32 32 0 0 1 45.226667 0.064l213.013333 213.333333a32 32 0 0 1-0.032 45.258667z"  horiz-adv-x="1024" />

    
    </font>
</defs>
</svg>
